<svg width="56" height="56" viewBox="0 0 56 56" fill="none" xmlns="http://www.w3.org/2000/svg">
<path d="M34.3276 56H21.6724C9.71389 56 0 46.2861 0 34.3276V21.6724C0 9.71389 9.71389 0 21.6724 0H34.3276C46.2861 0 56 9.71389 56 21.6724V34.3276C55.9613 46.2861 46.2861 56 34.3276 56Z" fill="#E11F1D"/>
<path d="M22.6408 38.5846C22.7956 39.0103 22.9117 39.32 23.0665 39.707C28.9877 39.707 34.9476 39.707 40.9075 39.707C41.0236 39.3587 41.1784 39.0103 41.3332 38.6233C41.2171 38.6233 41.101 38.5846 40.9849 38.5846C40.5205 38.5846 40.0948 38.5846 39.6304 38.5846C38.9338 38.5459 38.392 38.1202 38.1985 37.4623C38.1598 37.3075 38.1598 37.1914 38.1598 37.0366C38.1598 33.0117 38.1598 28.9869 38.1598 24.962C38.1598 24.2654 38.6242 23.5688 39.553 23.414C39.6691 23.414 39.8239 23.414 39.94 23.414C41.7203 23.414 43.4618 23.414 45.242 23.414C46.2482 23.414 47.0223 23.801 47.6028 24.6137C48.8799 26.3552 50.157 28.0968 51.4341 29.7996C52.0533 30.651 52.363 31.5798 52.363 32.6247C52.363 34.0566 52.363 35.5273 52.363 36.9592C52.363 37.5397 52.1695 37.9655 51.6664 38.2751C51.5116 38.3525 51.4729 38.4685 51.4729 38.6233C51.4729 38.8942 51.4729 39.1652 51.4729 39.4361C51.4729 40.2101 51.0084 40.7132 50.2344 40.7132C50.0022 40.7132 49.77 40.7132 49.4604 40.7132C49.383 42.2225 48.7638 43.4223 47.4867 44.2737C46.674 44.8155 45.7838 45.0477 44.855 44.9703C42.7652 44.8155 40.9075 43.2287 40.7914 40.7519C34.9476 40.7519 29.0651 40.7519 23.1826 40.7519C23.1052 42.0677 22.6021 43.19 21.5572 44.0027C20.7831 44.622 19.893 44.9703 18.8868 44.9703C17.6871 44.9703 16.6808 44.5833 15.8294 43.7705C14.978 42.9578 14.5523 41.9516 14.5136 40.7519C14.3588 40.7519 14.2427 40.7132 14.0879 40.7132C12.9269 40.7132 11.7659 40.7132 10.6436 40.7132C10.4501 40.7132 10.2178 40.6745 10.0243 40.6358C9.5212 40.481 9.2503 40.0166 9.2503 39.4361C9.2503 39.0104 9.2503 38.5846 9.2503 38.1589C9.2503 38.0428 9.21162 37.888 9.13422 37.8106C8.70851 37.3075 8.55371 36.727 8.55371 36.0691C8.55371 30.4575 8.55371 24.8459 8.55371 19.2729C8.55371 19.1568 8.5537 19.002 8.5924 18.8859C8.74721 17.6475 9.55994 16.8348 10.8371 16.8348C12.8495 16.7961 14.8619 16.8348 16.8744 16.8348C17.3388 16.8348 17.5323 17.0283 17.4936 17.4153C17.4936 17.6475 17.3001 17.841 17.0679 17.841C16.9518 17.841 16.8744 17.841 16.7583 17.841C14.8619 17.841 12.9656 17.841 11.0693 17.841C10.9919 17.841 10.8757 17.841 10.7983 17.841C10.063 17.841 9.55992 18.3441 9.55992 19.0794C9.55992 19.1568 9.55992 19.1955 9.55992 19.2729C9.55992 24.8846 9.55992 30.4962 9.55992 36.0691C9.55992 36.1852 9.55992 36.34 9.55992 36.4561C9.67602 37.114 10.1404 37.501 10.8758 37.501C12.269 37.501 13.6622 37.501 15.0167 37.501C15.4811 37.501 15.8682 37.4236 16.2552 37.114C17.8419 35.9143 20.0091 35.9917 21.5572 37.3075C21.712 37.4623 21.9055 37.501 22.1377 37.501C26.3948 37.501 30.6518 37.501 34.9476 37.501C35.1024 37.501 35.2573 37.501 35.4121 37.4623C35.9152 37.3462 36.3021 36.9592 36.3021 36.4174C36.3408 36.1078 36.3021 35.8369 36.3021 35.5273C36.3021 32.3538 36.3021 29.1803 36.3021 26.0456C36.3021 25.9295 36.3021 25.8521 36.3021 25.736C36.3408 25.4264 36.5344 25.2329 36.844 25.2329C37.1149 25.2329 37.3084 25.4264 37.3471 25.736C37.3471 25.7747 37.3471 25.8521 37.3471 25.8908C37.3471 29.3739 37.3471 32.8182 37.3471 36.3013C37.3471 37.3849 36.6892 38.2364 35.6443 38.4686C35.4507 38.5073 35.2185 38.5073 34.9863 38.5073C31.0001 38.5073 27.014 38.5073 23.0665 38.5073C22.9504 38.5847 22.8343 38.5846 22.6408 38.5846ZM39.166 30.9606C39.166 32.9343 39.166 34.9081 39.166 36.9205C39.166 37.3462 39.2821 37.4623 39.6691 37.5397C39.7852 37.5784 39.9013 37.5784 40.0174 37.5784C40.5979 37.5784 41.1784 37.5784 41.7589 37.5784C41.9911 37.5784 42.1847 37.501 42.3395 37.3462C43.1522 36.6496 44.081 36.34 45.1646 36.34C46.2096 36.34 47.1771 36.6883 47.9511 37.3849C48.1059 37.501 48.222 37.5397 48.4155 37.5397C49.1121 37.5397 49.8087 37.5397 50.5054 37.5397C50.6215 37.5397 50.6988 37.5397 50.8149 37.501C51.2019 37.4236 51.3181 37.2688 51.3181 36.8818C51.3181 35.4499 51.3181 33.9793 51.3181 32.5473C51.3181 31.7346 51.0858 31.038 50.6214 30.4188C49.3443 28.716 48.0672 26.9744 46.8288 25.2716C46.4031 24.6524 45.8226 24.3815 45.0872 24.4202C43.4231 24.4202 41.759 24.4202 40.0561 24.4202C39.94 24.4202 39.8626 24.4202 39.7465 24.4202C39.2821 24.4589 39.1273 24.6524 39.1273 25.1168C39.166 27.0905 39.166 29.0256 39.166 30.9606ZM22.1377 40.7132C22.2151 39.2039 20.9766 37.4236 18.8868 37.3849C17.1453 37.3849 15.5972 38.7008 15.5585 40.6745C15.5585 42.6869 17.184 44.0027 18.8481 44.0027C20.6283 43.964 22.1377 42.5321 22.1377 40.7132ZM41.8364 40.6745C41.8364 42.4547 43.307 43.964 45.0872 44.0027C46.7514 44.0414 48.4155 42.7643 48.4155 40.7132C48.4155 38.8555 46.9449 37.4236 45.1259 37.3849C43.3457 37.3462 41.8364 38.8556 41.8364 40.6745ZM15.0167 38.6233C13.43 38.6233 11.882 38.6233 10.2952 38.6233C10.2952 38.8942 10.2952 39.1264 10.2952 39.3973C10.2952 39.6683 10.3727 39.7457 10.6436 39.7457C11.2241 39.7457 11.8046 39.7457 12.3851 39.7457C13.043 39.7457 13.7396 39.7457 14.3975 39.7457C14.4749 39.7457 14.6297 39.707 14.6684 39.6296C14.7845 39.2813 14.8619 38.9716 15.0167 38.6233ZM48.9573 38.6233C49.0347 38.8168 49.1121 38.9717 49.1508 39.0878C49.2282 39.2813 49.2669 39.5909 49.4217 39.6683C49.6152 39.7844 49.8861 39.707 50.1183 39.707C50.1571 39.707 50.1957 39.707 50.2344 39.707C50.3118 39.6296 50.4279 39.5909 50.4279 39.5135C50.4666 39.2039 50.4279 38.8942 50.4279 38.5846C49.9248 38.6233 49.4604 38.6233 48.9573 38.6233Z" fill="white"/>
<path d="M25.6976 11.3008C25.6976 10.9138 25.6976 10.5268 25.6976 10.101C25.5815 10.101 25.4267 10.1011 25.3106 10.0624C24.5753 10.0237 24.0722 9.52052 24.0335 8.78521C24.0335 8.63041 24.0335 8.51431 24.0335 8.35951C24.0335 7.6242 24.5366 7.04367 25.2719 7.04367C26.6264 7.00497 27.9423 7.00497 29.2968 7.04367C30.0321 7.04367 30.4965 7.5855 30.5352 8.32082C30.5352 8.51432 30.5352 8.70783 30.5352 8.90133C30.4965 9.55924 29.9934 10.0624 29.3355 10.0624C28.8711 10.0624 28.9485 10.1784 28.9485 10.4881C28.9485 10.759 28.9485 11.0299 28.9485 11.2621C29.7612 11.4943 30.4965 11.7265 31.3092 11.9974C31.4253 11.8426 31.5802 11.6491 31.735 11.4556C32.122 10.9525 32.6251 10.759 33.2056 10.8364C34.3279 10.9525 35.1793 11.9587 35.1019 12.9649C35.0632 13.2745 34.9858 13.5067 34.7923 13.7776C34.6762 13.9711 34.5214 14.1259 34.3666 14.3194C36.8434 17.3768 37.5401 20.7824 36.0307 24.459C34.9858 27.0133 33.0508 28.7935 30.4578 29.7223C25.2719 31.5413 19.6603 28.6774 18.1123 23.4141C16.6029 17.9573 19.9699 12.3844 25.6976 11.3008ZM27.3618 12.2296C23.0273 12.1522 18.9637 15.6353 18.8089 20.4729C18.6541 25.3105 22.6403 29.4514 27.6714 29.2192C32.8573 28.987 35.9534 24.5364 35.7985 20.7051C35.6824 20.7051 35.5276 20.7051 35.4115 20.7051C32.9734 20.7051 30.5352 20.7051 28.0971 20.7051C27.5166 20.7051 27.3618 20.5503 27.3618 19.9697C27.3618 17.5316 27.3618 15.0934 27.3618 12.6553C27.3618 12.5005 27.3618 12.3844 27.3618 12.2296ZM27.3231 8.08862C26.7039 8.08862 26.0846 8.08862 25.4654 8.08862C25.1558 8.08862 25.0784 8.16602 25.0784 8.47563C25.0784 8.55303 25.0784 8.59173 25.0784 8.66913C25.0784 9.01744 25.1558 9.09483 25.5041 9.09483C26.7038 9.09483 27.9036 9.09483 29.1033 9.09483C29.4516 9.09483 29.529 8.97871 29.529 8.5917C29.529 8.166 29.4516 8.08862 29.1033 8.08862C28.5228 8.08862 27.9423 8.08862 27.3231 8.08862ZM32.3542 12.3844C32.8186 12.7714 33.283 13.1197 33.7474 13.468C34.057 13.1971 34.2505 12.9262 34.057 12.5392C33.8635 12.1522 33.5539 11.92 33.1282 11.8426C32.7025 11.8039 32.5477 12.0748 32.3542 12.3844ZM26.7426 11.1847C27.0909 11.1847 27.4392 11.1847 27.7488 11.1847C27.8262 11.1847 27.9036 11.1073 27.9036 11.0299C27.9036 10.759 27.9036 10.488 27.9036 10.1784C27.4779 10.1784 27.0909 10.1784 26.7039 10.1784C26.7426 10.5267 26.7426 10.8364 26.7426 11.1847ZM30.6126 14.3968C30.6126 14.0872 30.3417 13.8163 30.0321 13.8163C29.6838 13.8163 29.4129 14.0872 29.4129 14.4355C29.4129 14.7838 29.7225 15.0547 30.0321 15.016C30.3417 14.9773 30.6126 14.7064 30.6126 14.3968ZM33.7474 18.6539C34.0957 18.6539 34.3279 18.383 34.3279 18.0347C34.3279 17.6864 34.057 17.4542 33.7087 17.4929C33.3991 17.4929 33.1282 17.7638 33.1669 18.1121C33.1282 18.383 33.3991 18.6539 33.7474 18.6539ZM32.238 15.2483C31.9284 15.2483 31.6575 15.5192 31.6575 15.8288C31.6575 16.1771 31.9284 16.448 32.2767 16.448C32.5863 16.448 32.8573 16.1771 32.8573 15.8288C32.8186 15.5192 32.5477 15.2483 32.238 15.2483Z" fill="white"/>
<path d="M4.83802 19.6214C4.064 19.6214 3.28998 19.6214 2.51597 19.6214C2.43857 19.6214 2.32244 19.6214 2.24503 19.6214C2.01283 19.5827 1.85804 19.3893 1.81934 19.1571C1.81934 18.9248 1.93545 18.7313 2.16765 18.6539C2.24505 18.6152 2.36113 18.6152 2.47723 18.6152C4.06396 18.6152 5.65071 18.6152 7.23744 18.6152C7.31485 18.6152 7.39224 18.6152 7.46964 18.6539C7.74054 18.7313 7.89535 18.9248 7.85665 19.1957C7.81795 19.4667 7.66316 19.6601 7.39226 19.6601C7.12135 19.6601 6.81172 19.6601 6.54081 19.6601C5.9603 19.6214 5.37983 19.6214 4.83802 19.6214Z" fill="white"/>
<path d="M5.53463 22.6787C4.95412 22.6787 4.4123 22.6787 3.83179 22.6787C3.48348 22.6787 3.28998 22.4465 3.25127 22.2143C3.21257 21.9434 3.44479 21.6725 3.7931 21.6725C4.1801 21.6338 4.6058 21.6725 4.99281 21.6725C5.68942 21.6725 6.38605 21.6725 7.08266 21.6725C7.19876 21.6725 7.31487 21.6725 7.43098 21.7112C7.74058 21.7499 7.89537 21.9821 7.89537 22.253C7.89537 22.5239 7.6632 22.7174 7.35359 22.7174C6.69568 22.6787 6.11514 22.6787 5.53463 22.6787Z" fill="white"/>
<path d="M6.23155 24.7686C6.57986 24.7686 6.92815 24.7686 7.27645 24.7686C7.62476 24.7686 7.81827 24.962 7.81827 25.2716C7.81827 25.5038 7.66346 25.7748 7.27645 25.7748C6.57984 25.7748 5.88322 25.7748 5.1866 25.7748C4.8383 25.7748 4.60613 25.5425 4.64483 25.2716C4.64483 24.962 4.877 24.8072 5.1866 24.8072C5.57361 24.7685 5.92195 24.7686 6.23155 24.7686Z" fill="white"/>
<path d="M15.0164 38.6233C14.9003 38.9716 14.7842 39.3199 14.6681 39.6295C14.6294 39.707 14.5133 39.7456 14.3972 39.7456C13.7393 39.7456 13.0427 39.7456 12.3848 39.7456C11.8043 39.7456 11.2237 39.7456 10.6432 39.7456C10.3336 39.7456 10.2949 39.7069 10.2949 39.3973C10.2949 39.1264 10.2949 38.8942 10.2949 38.6233C11.843 38.6233 13.4297 38.6233 15.0164 38.6233Z" fill="white"/>
<path d="M45.1645 32.0444C44.3131 32.0444 43.423 32.0444 42.5716 32.0444C42.3393 32.0444 42.1458 32.0057 41.9523 31.8896C41.604 31.7348 41.4492 31.4252 41.4492 31.0382C41.4492 29.7998 41.4492 28.5613 41.4492 27.3616C41.4492 27.1294 41.4492 26.8972 41.4492 26.665C41.4492 26.2006 41.7201 25.891 42.1458 25.7749C42.3006 25.7362 42.4554 25.7362 42.6102 25.6975C43.3456 25.6975 44.0422 25.6975 44.7775 25.6975C45.358 25.6975 45.8224 25.9297 46.1707 26.3941C46.9447 27.3616 47.68 28.3678 48.4927 29.2967C48.8023 29.6837 48.9959 30.1094 48.9572 30.6512C48.9572 30.7673 48.9572 30.8447 48.9572 30.9608C49.0346 31.6574 48.4927 32.0444 47.8735 32.0444C46.9834 32.0444 46.0546 32.0444 45.1645 32.0444ZM42.4941 26.7424C42.4941 28.1743 42.4941 29.6063 42.4941 30.9995C44.3131 30.9995 46.132 30.9995 47.9122 30.9995C48.0283 30.5351 47.8736 30.1868 47.6027 29.7998C46.8673 28.9097 46.1707 28.0195 45.4741 27.1294C45.2419 26.8585 45.0097 26.7037 44.6614 26.7424C44.0808 26.7811 43.4616 26.7424 42.8811 26.7424C42.7263 26.7424 42.6102 26.7424 42.4941 26.7424Z" fill="white"/>
<path d="M42.4939 33.5925C42.3391 33.5925 42.1456 33.5925 41.9908 33.5925C41.7199 33.5538 41.5264 33.399 41.5264 33.1281C41.5264 32.8572 41.6425 32.625 41.9134 32.625C42.3004 32.5863 42.6874 32.5863 43.1131 32.625C43.3453 32.6637 43.5001 32.8959 43.5001 33.1281C43.5001 33.3603 43.3066 33.5925 43.0357 33.6312C42.8422 33.5925 42.6487 33.5925 42.4939 33.5925Z" fill="white"/>
<path d="M20.5119 40.7133C20.5506 41.6035 19.7379 42.4162 18.8091 42.3775C17.8802 42.3388 17.1836 41.6422 17.1836 40.6746C17.1836 39.7458 17.9189 39.0105 18.8477 39.0105C19.9314 39.0105 20.5893 39.9006 20.5119 40.7133ZM18.8477 41.3325C19.1961 41.3325 19.5056 41.023 19.5056 40.6746C19.5056 40.3263 19.1961 40.0168 18.8477 40.0168C18.4994 40.0168 18.1899 40.3263 18.1899 40.6746C18.1899 41.0617 18.4994 41.3325 18.8477 41.3325Z" fill="white"/>
<path d="M45.1644 42.3775C44.313 42.4162 43.4616 41.6422 43.5003 40.6746C43.539 39.7458 44.2743 39.0105 45.2031 39.0105C46.132 39.0105 46.8673 39.7458 46.8673 40.6746C46.8673 41.6422 46.132 42.3775 45.1644 42.3775ZM45.2031 41.3325C45.5514 41.3325 45.8611 41.0616 45.8611 40.7133C45.8611 40.365 45.5514 40.0554 45.2031 40.0554C44.8548 40.0554 44.5452 40.3263 44.5452 40.7133C44.5452 41.0616 44.8161 41.3325 45.2031 41.3325Z" fill="white"/>
<path d="M20.6668 20.1632C20.9764 20.1632 21.1699 20.4341 21.1699 20.7437C21.1699 21.0533 20.899 21.2855 20.5894 21.2468C20.2798 21.2081 20.0476 20.9759 20.0863 20.6663C20.125 20.3567 20.3572 20.1245 20.6668 20.1632Z" fill="white"/>
<path d="M34.2897 23.298C34.2897 23.6076 34.0575 23.8399 33.7479 23.8399C33.4383 23.8399 33.2061 23.6076 33.2061 23.298C33.2061 22.9884 33.477 22.7175 33.7866 22.7175C34.0575 22.7562 34.2897 22.9884 34.2897 23.298Z" fill="white"/>
<path d="M30.6129 26.9744C30.6129 27.284 30.342 27.5163 30.0711 27.5163C29.7615 27.5163 29.5293 27.284 29.5293 26.9744C29.5293 26.6648 29.7615 26.4326 30.1098 26.4326C30.3807 26.4326 30.6129 26.6648 30.6129 26.9744Z" fill="white"/>
<path d="M22.6402 15.3257C22.9499 15.3257 23.182 15.5579 23.182 15.8675C23.182 16.1771 22.9499 16.4093 22.6402 16.4093C22.3306 16.4093 22.0597 16.1384 22.0984 15.8288C22.0597 15.5579 22.3306 15.3257 22.6402 15.3257Z" fill="white"/>
<path d="M24.3047 26.9744C24.3047 26.6648 24.5369 26.4326 24.8465 26.4326C25.1561 26.4326 25.3883 26.6648 25.3883 26.9744C25.3883 27.284 25.1174 27.5549 24.8078 27.5549C24.5369 27.5162 24.3047 27.284 24.3047 26.9744Z" fill="white"/>
<path d="M21.7112 23.2979C21.7112 23.6075 21.479 23.8397 21.1694 23.8397C20.8598 23.8397 20.5889 23.6075 20.5889 23.2979C20.5889 22.9883 20.8598 22.7561 21.1307 22.7561C21.4403 22.7561 21.7112 22.9883 21.7112 23.2979Z" fill="white"/>
<path d="M21.1314 17.5315C21.441 17.5315 21.6732 17.7637 21.7119 18.0733C21.7119 18.3829 21.4797 18.6538 21.1701 18.6538C20.8605 18.6538 20.6282 18.4216 20.6282 18.112C20.5895 17.8024 20.8218 17.5315 21.1314 17.5315Z" fill="white"/>
<path d="M25.3491 14.3968C25.3491 14.7064 25.1168 14.9386 24.8072 14.9386C24.4976 14.9386 24.2267 14.6677 24.2654 14.3581C24.2654 14.0485 24.5363 13.855 24.8459 13.855C25.1555 13.855 25.3491 14.0872 25.3491 14.3968Z" fill="white"/>
<path d="M22.6408 24.9622C22.9505 24.9622 23.1826 25.1944 23.1439 25.504C23.1439 25.8136 22.9117 26.0458 22.6021 26.0458C22.2925 26.0458 22.0216 25.7748 22.0603 25.4652C22.099 25.1556 22.3312 24.9622 22.6408 24.9622Z" fill="white"/>
<path d="M27.4392 26.936C27.7488 26.936 28.0197 27.2069 28.0197 27.5165C28.0197 27.8262 27.7488 28.0584 27.4392 28.0584C27.1296 28.0584 26.8975 27.8262 26.8975 27.5165C26.8975 27.1682 27.1296 26.936 27.4392 26.936Z" fill="white"/>
<path d="M32.2768 26.0458C31.9672 26.0458 31.735 25.8523 31.6963 25.5427C31.6963 25.2331 31.9285 24.9622 32.2381 24.9622C32.5477 24.9622 32.7799 25.1944 32.7799 25.504C32.8186 25.8136 32.5864 26.0071 32.2768 26.0458Z" fill="white"/>
</svg>
