<svg width="56" height="56" viewBox="0 0 56 56" fill="none" xmlns="http://www.w3.org/2000/svg">
<path d="M34.3276 56H21.6724C9.71389 56 0 46.2861 0 34.3276V21.6724C0 9.71389 9.71389 0 21.6724 0H34.3276C46.2861 0 56 9.71389 56 21.6724V34.3276C55.9613 46.2861 46.2861 56 34.3276 56Z" fill="#E11F1D"/>
<path d="M28.7546 8.08838C28.7933 8.16578 28.8707 8.12707 28.9094 8.12707C29.3738 8.12707 29.7995 8.12706 30.264 8.16576C30.651 8.20446 31.038 8.28186 31.425 8.35927C32.0055 8.47537 32.586 8.63016 33.1278 8.78496C34.2888 9.13327 35.4112 9.55898 36.4561 10.1395C37.4623 10.6426 38.3911 11.2618 39.2812 11.9585C40.1713 12.6551 40.9454 13.4678 41.6807 14.3192C43.5383 16.4477 44.8154 18.9246 45.4734 21.711C45.6282 22.4076 45.7829 23.0656 45.8216 23.8009C45.8216 24.1105 45.8991 24.4588 45.8991 24.7684C45.8991 25.078 45.8604 25.3489 45.9378 25.6585C45.9765 26.1616 45.9378 26.7034 45.8991 27.2065C45.7442 28.832 45.3959 30.38 44.8154 31.8894C44.0801 33.7857 43.0739 35.4885 41.7581 36.9978C41.4872 37.3074 41.255 37.6171 40.984 37.888C40.9453 37.9267 40.9067 38.004 40.8293 38.004C40.7906 37.5783 40.7518 37.1913 40.7905 36.7656C40.8292 36.3012 40.8293 35.8368 40.8293 35.3724C40.8293 35.0628 40.8293 34.7532 41.0228 34.4823C41.8742 33.2439 42.5321 31.928 43.0352 30.4961C43.3061 29.6834 43.4996 28.832 43.577 27.9418C43.6931 27.0904 43.7318 26.239 43.7318 25.3876C43.6157 22.2528 42.7256 19.4277 40.9067 16.8734C40.2488 15.9446 39.5134 15.1319 38.662 14.3579C38.1589 13.8935 37.6171 13.4677 37.0366 13.0807C36.2239 12.5002 35.3337 12.0358 34.4436 11.6101C33.3987 11.1457 32.3151 10.7974 31.2315 10.5652C30.7284 10.4491 30.1866 10.3717 29.6834 10.333C29.0642 10.2556 28.4063 10.2169 27.7871 10.2556C27.2066 10.2943 26.6261 10.333 26.0456 10.3717C24.8071 10.5265 23.6074 10.7974 22.4464 11.2231C21.7498 11.4553 21.0919 11.7649 20.4339 12.1132C19.5051 12.6163 18.615 13.1969 17.8023 13.8935C16.5639 14.8997 15.5189 16.0994 14.6675 17.4539C13.6226 19.0794 12.926 20.8209 12.539 22.7172C12.4229 23.2591 12.3455 23.8396 12.3068 24.3814C12.2681 24.9619 12.2294 25.5037 12.2294 26.0842C12.2681 26.5873 12.2681 27.0517 12.3455 27.5548C12.3455 27.6322 12.3455 27.7097 12.2294 27.7097C11.8037 27.8645 11.4167 28.0193 11.0297 28.2128C10.7975 28.3289 10.5265 28.4837 10.2556 28.6385C10.1782 28.3289 10.1395 28.0579 10.1008 27.787C10.0621 27.5161 10.1008 27.2452 10.0234 26.9743C10.0234 26.7421 10.0234 26.5099 10.0234 26.2777C10.0234 25.9294 10.0234 25.5424 10.0234 25.1941C10.0234 24.9619 10.0234 24.7297 10.0234 24.4975C10.0234 24.4201 10.0621 24.304 10.0621 24.2266C10.0621 23.7622 10.1395 23.2978 10.2169 22.8721C10.4878 21.4014 10.9136 19.9695 11.4941 18.615C12.8099 15.635 14.861 13.2355 17.4927 11.3392C18.2667 10.7974 19.0407 10.333 19.8921 9.94599C20.937 9.44288 21.982 9.01719 23.1043 8.70758C23.6461 8.55278 24.2266 8.43668 24.8071 8.32057C25.1554 8.24317 25.5038 8.24316 25.8134 8.16576C25.9295 8.12706 26.123 8.20448 26.2004 8.08838C26.2778 8.08838 26.3165 8.08838 26.3939 8.08838C26.3939 8.12708 26.4713 8.12707 26.51 8.12707C27.0905 8.12707 27.6323 8.12707 28.2128 8.12707C28.2515 8.12707 28.2902 8.16578 28.3289 8.08838C28.4837 8.08838 28.6385 8.08838 28.7546 8.08838Z" fill="white"/>
<path d="M10.0625 31.1539C10.1399 31.0378 10.1012 30.883 10.1012 30.7282C10.1399 30.4573 10.2947 30.2638 10.4495 30.0703C10.8365 29.6446 11.3009 29.4124 11.804 29.1415C12.5006 28.8319 13.1973 28.5997 13.9326 28.4449C14.4744 28.3288 15.0162 28.2514 15.5967 28.2127C16.2546 28.174 16.8738 28.1353 17.5317 28.1353C17.9575 28.1353 18.4219 28.2127 18.8476 28.2127C19.312 28.2127 19.7377 28.3288 20.2021 28.4062C20.7439 28.5223 21.3244 28.6771 21.8275 28.8706C22.5241 29.1028 23.1434 29.4124 23.6852 29.9155C23.9948 30.1864 24.227 30.496 24.227 30.883C24.2657 31.3474 24.3044 31.8505 24.1496 32.315C24.0335 32.6633 23.8013 32.8955 23.5304 33.089C22.9886 33.476 22.4081 33.7469 21.7501 33.9791C21.0535 34.2113 20.3569 34.3661 19.6603 34.4822C18.6928 34.637 17.6865 34.637 16.719 34.637C16.2933 34.637 15.8289 34.637 15.4032 34.5983C14.9388 34.5596 14.4357 34.4822 13.9713 34.3661C13.4295 34.25 12.8877 34.0952 12.3845 33.9017C11.8427 33.7082 11.3396 33.476 10.9139 33.1277C10.5269 32.8568 10.256 32.5084 10.1012 32.044C10.0625 31.7731 10.0625 31.4635 10.0625 31.1539ZM18.925 32.7793C18.9637 32.7793 19.0024 32.7793 19.0411 32.7793C19.4281 32.7019 19.8538 32.6632 20.2408 32.5858C20.9374 32.431 21.634 32.2376 22.2919 31.8893C22.6402 31.7345 22.9111 31.5022 23.182 31.2313C23.2594 31.1152 23.2594 31.0378 23.182 30.9217C23.0659 30.8056 22.9498 30.6895 22.795 30.5734C22.2145 30.1477 21.5566 29.9155 20.86 29.722C20.2408 29.5672 19.6216 29.4511 19.0024 29.3737C18.6154 29.335 18.2284 29.2963 17.8413 29.2576C17.0673 29.2189 16.2933 29.2576 15.558 29.335C15.0936 29.3737 14.6292 29.4511 14.1648 29.5672C13.4295 29.722 12.7328 29.9155 12.0749 30.2638C11.7653 30.4186 11.4557 30.6508 11.2235 30.9217C11.1074 31.0378 11.1074 31.1539 11.2235 31.3087C11.3396 31.4248 11.417 31.5022 11.5331 31.6183C11.9975 31.9666 12.5006 32.1988 13.0812 32.3536C13.7004 32.5472 14.3196 32.6632 14.9775 32.7793C15.5193 32.8567 16.0611 32.8955 16.6416 32.9342C17.2221 32.9729 17.764 32.9342 18.3445 32.8955C18.538 32.8181 18.7315 32.818 18.925 32.7793Z" fill="white"/>
<path d="M10.0625 40.0553C10.7204 41.0615 11.7653 41.4872 12.8489 41.8355C13.3134 41.9903 13.7778 42.1064 14.2809 42.1838C14.6679 42.2612 15.0162 42.3 15.4032 42.3387C15.558 42.3387 15.7515 42.3773 15.9063 42.3773C16.6029 42.416 17.2608 42.4547 17.9575 42.416C18.1897 42.3773 18.4219 42.3773 18.6928 42.3773C18.8863 42.3773 19.0411 42.3386 19.2346 42.2999C19.4281 42.2612 19.5829 42.2612 19.7764 42.2225C20.1634 42.1838 20.5504 42.0677 20.9374 41.9903C21.4018 41.8742 21.8662 41.7194 22.2919 41.5646C22.9498 41.2937 23.5304 40.9841 23.9948 40.481C24.1109 40.3649 24.1883 40.2101 24.3044 40.0553C24.3044 40.4036 24.3044 40.6745 24.3044 40.9841C24.3431 41.642 23.9561 42.029 23.4917 42.416C22.7564 42.9578 21.9436 43.2675 21.0922 43.4997C20.5891 43.6545 20.0473 43.7319 19.5442 43.8093C19.0798 43.8867 18.6154 43.9254 18.151 43.9641C17.764 44.0028 17.3769 43.9641 16.9512 43.9641C16.1772 43.9641 15.4032 43.8867 14.6292 43.7706C13.7778 43.6545 12.9651 43.4223 12.1523 43.1127C11.6492 42.9192 11.1848 42.6482 10.7591 42.2999C10.4882 42.0677 10.2173 41.7581 10.1012 41.4098C10.0625 40.9067 10.0625 40.481 10.0625 40.0553Z" fill="white"/>
<path d="M10.0621 37.8104C10.1395 37.8104 10.1395 37.8878 10.1782 37.9265C10.6039 38.5458 11.1845 38.894 11.8424 39.2036C12.5003 39.5132 13.1969 39.7068 13.9322 39.8616C14.474 39.9777 14.9771 40.0164 15.5189 40.0938C16.2543 40.1712 16.9896 40.1325 17.7249 40.1712C18.0732 40.1712 18.4215 40.1325 18.7311 40.0938C19.1568 40.0551 19.5438 40.0164 19.9308 39.939C20.4339 39.8616 20.8984 39.7455 21.4015 39.5907C22.0981 39.3971 22.756 39.1263 23.3365 38.7006C23.6074 38.5071 23.8783 38.2748 24.0718 38.0039C24.1105 37.9652 24.1492 37.8878 24.2266 37.8104C24.2266 38.1587 24.2266 38.4296 24.2266 38.7393C24.2266 39.3198 23.9557 39.7068 23.53 40.0551C22.9108 40.5582 22.1755 40.8291 21.4015 41.0613C20.9371 41.2161 20.4339 41.3322 19.9308 41.4096C19.5438 41.487 19.1955 41.5257 18.8085 41.5644C18.0345 41.6418 17.2992 41.6031 16.5252 41.6031C16.1382 41.6031 15.7511 41.5644 15.4028 41.5257C14.861 41.487 14.3192 41.4483 13.7774 41.2935C12.7712 41.0613 11.765 40.7517 10.9136 40.1325C10.5265 39.8616 10.2169 39.552 10.0621 39.0876C10.0621 39.0102 10.0621 38.9328 10.0234 38.8554C10.0621 38.5071 10.0621 38.1587 10.0621 37.8104Z" fill="white"/>
<path d="M10.0625 35.5271C10.1399 35.5271 10.1786 35.6045 10.2173 35.6819C10.643 36.3011 11.2622 36.6882 11.9588 36.9591C12.6554 37.2687 13.3521 37.4235 14.0874 37.5783C14.5131 37.6557 14.9001 37.7331 15.3258 37.7718C15.7515 37.8105 16.2159 37.8491 16.6416 37.8491C17.0673 37.8491 17.5317 37.8491 17.9575 37.8491C18.2671 37.8491 18.538 37.8105 18.8476 37.7718C19.0798 37.7718 19.3507 37.7331 19.5829 37.6944C19.8151 37.6557 20.0473 37.617 20.3182 37.5783C20.7439 37.5009 21.1696 37.3847 21.5953 37.2686C22.3306 37.0364 22.9886 36.7268 23.6078 36.3011C23.84 36.1076 23.9948 35.8754 24.1883 35.6819C24.227 35.6432 24.227 35.6045 24.3044 35.5658C24.3044 35.8754 24.3044 36.185 24.3044 36.4946C24.3044 37.0751 23.9948 37.4622 23.5691 37.7718C23.1046 38.1588 22.5241 38.391 21.9823 38.6232C21.3244 38.8554 20.6665 39.0102 20.0086 39.165C19.6216 39.2424 19.2346 39.2424 18.8476 39.2811C17.9962 39.3198 17.1447 39.3198 16.2933 39.3198C15.945 39.3198 15.5967 39.2811 15.2484 39.2424C14.784 39.2037 14.3196 39.1263 13.8552 39.0102C13.2747 38.8554 12.6941 38.7006 12.1136 38.4684C11.6492 38.2749 11.1848 38.0427 10.7591 37.6944C10.4495 37.4235 10.1786 37.1138 10.1012 36.6881C10.1012 36.6881 10.1012 36.6881 10.0625 36.6881C10.0625 36.3011 10.0625 35.9141 10.0625 35.5271Z" fill="white"/>
<path d="M10.0621 33.1277C10.2943 33.3599 10.4491 33.6308 10.6813 33.8243C10.9909 34.0565 11.3006 34.25 11.6489 34.4435C12.3068 34.7531 13.0034 34.9466 13.7 35.1401C14.1644 35.2562 14.6288 35.3336 15.0545 35.3723C15.4028 35.411 15.7511 35.411 16.0995 35.4497C16.6413 35.4884 17.2218 35.4884 17.7636 35.4884C18.3441 35.4497 18.9633 35.411 19.5438 35.3336C20.3178 35.2175 21.0532 35.0627 21.7885 34.8305C22.4851 34.5983 23.143 34.2887 23.6848 33.8243C23.8783 33.6308 24.0331 33.3986 24.2266 33.1664C24.2266 33.5147 24.2266 33.7856 24.2266 34.0952C24.2653 34.7918 23.8009 35.2175 23.2978 35.5659C22.6786 35.9916 21.982 36.2237 21.2854 36.4559C20.7823 36.6107 20.2791 36.7269 19.8147 36.8043C19.5051 36.843 19.1955 36.8816 18.8859 36.8816C18.0345 36.9203 17.1444 36.9204 16.293 36.9204C15.9446 36.9204 15.5576 36.8816 15.2093 36.8816C14.8997 36.8816 14.6288 36.843 14.3192 36.7656C13.6613 36.6108 13.0034 36.456 12.3842 36.2237C11.8037 35.9915 11.2232 35.7593 10.72 35.3336C10.4104 35.0627 10.1008 34.7531 10.0621 34.3274L10.0234 34.2887C10.0621 33.9017 10.0621 33.5147 10.0621 33.1277Z" fill="white"/>
<path d="M28.3286 8.08826C28.3286 8.12696 28.2512 8.12695 28.2125 8.12695C27.632 8.12695 27.0902 8.12695 26.5097 8.12695C26.471 8.12695 26.4323 8.12696 26.3936 8.08826C27.0902 8.08826 27.7094 8.08826 28.3286 8.08826Z" fill="white"/>
<path d="M10.1012 25.1942C10.1012 25.5425 10.1012 25.9295 10.1012 26.2779H10.0625C10.0625 25.9295 10.0625 25.5425 10.1012 25.1942C10.0625 25.1942 10.1012 25.1942 10.1012 25.1942Z" fill="white"/>
<path d="M10.1012 25.1941C10.1012 25.1941 10.0625 25.1941 10.1012 25.1941C10.0625 24.9619 10.0625 24.7296 10.0625 24.4974H10.1012C10.1012 24.7296 10.1012 24.9619 10.1012 25.1941Z" fill="white"/>
<path d="M10.0625 26.2777C10.1012 26.5099 10.1012 26.7421 10.1012 26.9743H10.0625C10.0625 26.7421 10.0625 26.5099 10.0625 26.2777Z" fill="white"/>
<path d="M33.9021 27.4774C33.399 27.5548 32.8959 27.5548 32.3541 27.5161C31.6187 27.4774 30.9221 27.5161 30.1868 27.5161C29.8772 27.5161 29.6063 27.5161 29.2967 27.5548C28.7936 27.5935 28.3292 27.5161 27.8648 27.5161C27.4778 27.5161 27.2069 27.3226 26.936 27.0517C26.0845 26.1229 25.1944 25.2715 24.3043 24.3813C23.4529 23.5686 22.6402 22.7559 21.8274 21.9432C20.8986 21.0143 19.9311 20.0856 19.0023 19.118C18.8475 18.9632 18.654 18.7697 18.4992 18.5762C17.9961 18.0344 18.1896 17.1056 18.8862 16.8734C19.3506 16.6799 19.815 16.796 20.1633 17.1443C20.6277 17.57 21.0534 17.9957 21.5178 18.4214C22.6015 19.4663 23.6464 20.5112 24.6913 21.5175C25.6975 22.5237 26.7425 23.5299 27.7487 24.5361C27.8261 24.6135 27.9422 24.6522 28.0583 24.6522C29.1032 24.6522 30.1868 24.6522 31.2318 24.6522C32.1219 24.6522 33.0507 24.6909 33.9408 24.6909C34.2117 24.6909 34.4826 24.6909 34.7148 24.807C35.3727 25.0779 35.6436 25.7358 35.5275 26.4324C35.4501 26.9356 35.1792 27.2452 34.7535 27.4387C34.4826 27.4774 34.2117 27.4774 33.9021 27.4774Z" fill="white"/>
<path d="M39.6289 35.6046C39.6676 35.7207 39.6677 35.8755 39.6677 35.9916C39.6677 36.3012 39.629 36.6495 39.5516 36.9591C39.4355 37.3074 39.1646 37.5396 38.8936 37.7331C38.3131 38.1588 37.6939 38.4684 37.036 38.7006C36.4555 38.8941 35.8363 39.0489 35.2171 39.1263C34.7527 39.2037 34.2496 39.2424 33.7464 39.2811C33.1659 39.3198 32.5467 39.3198 31.9662 39.3198C31.3857 39.3198 30.8052 39.2424 30.2247 39.165C29.4506 39.0876 28.7153 38.9328 27.98 38.6619C27.3608 38.4684 26.7803 38.1588 26.2772 37.8105C25.9676 37.5783 25.6193 37.3461 25.5032 36.9204C25.4258 36.6495 25.4258 36.3399 25.4258 36.0689C25.4258 35.8754 25.4258 35.6819 25.4645 35.4497C25.5419 34.9853 25.8128 34.7144 26.1224 34.4435C26.7803 33.9404 27.5156 33.6308 28.2896 33.3986C28.7927 33.2438 29.2959 33.1277 29.799 33.0503C30.1473 32.9729 30.5343 32.9729 30.9213 32.8955C31.4631 32.8181 32.0049 32.8955 32.5467 32.8568C32.9724 32.8568 33.3594 32.8955 33.7851 32.8955C34.0173 32.8955 34.2882 32.9342 34.5592 32.9342C34.8688 32.9729 35.2171 33.0116 35.5267 33.0503C36.0685 33.1664 36.5716 33.2825 37.0747 33.476C37.7713 33.7082 38.4292 34.0178 39.0097 34.4822C39.358 34.7531 39.5516 35.1014 39.6677 35.5271C39.6677 35.5658 39.6676 35.6046 39.6289 35.6046ZM34.714 37.3848C35.101 37.3461 35.488 37.2687 35.8363 37.1913C36.4555 37.0365 37.036 36.843 37.5778 36.5334C37.9261 36.3786 38.2357 36.185 38.4679 35.8754C38.6227 35.6819 38.6227 35.6045 38.4679 35.4497C38.1583 35.1401 37.7713 34.8692 37.3456 34.7144C36.3007 34.2887 35.2171 34.0565 34.0947 33.9791C33.6303 33.9404 33.1659 33.9404 32.7015 33.9017C32.3145 33.863 31.9275 33.863 31.5405 33.9017C31.2696 33.9404 30.9987 33.9404 30.6891 33.9791C30.3408 34.0178 29.9925 34.0952 29.6442 34.1726C28.9475 34.2887 28.2509 34.4822 27.6317 34.7531C27.2447 34.9466 26.8577 35.1788 26.5481 35.4884C26.3933 35.6819 26.3933 35.7206 26.5481 35.9141C26.7803 36.185 27.0512 36.3786 27.3608 36.5334C28.2122 36.9978 29.1023 37.23 30.0312 37.3461C30.5343 37.4235 31.0374 37.4622 31.5405 37.4622C32.0436 37.5009 32.5467 37.5009 33.0498 37.4622C33.3594 37.4622 33.669 37.4622 33.9786 37.4235C34.2882 37.4235 34.5205 37.4622 34.714 37.3848Z" fill="white"/>
<path d="M39.6678 37.8104C39.7065 38.2361 39.7065 38.6232 39.6678 39.0489C39.5904 39.5133 39.2808 39.7842 38.9325 40.0551C38.3519 40.5195 37.6553 40.7904 36.9587 41.0226C36.4169 41.1774 35.9138 41.2935 35.372 41.4096C34.9463 41.487 34.4819 41.5644 34.0562 41.6031C33.3595 41.6418 32.6629 41.6418 31.9663 41.6418C31.6954 41.6418 31.4245 41.6031 31.1536 41.6031C30.8053 41.5644 30.457 41.5257 30.07 41.487C29.4895 41.4096 28.9476 41.2935 28.4058 41.1387C27.477 40.8678 26.6256 40.4808 25.929 39.7842C25.6581 39.5519 25.542 39.2424 25.542 38.8941C25.542 38.5845 25.542 38.3135 25.542 38.0039C25.542 37.9652 25.542 37.9266 25.5807 37.8879C25.7742 38.2362 26.0451 38.5071 26.3547 38.7006C26.9352 39.1263 27.5931 39.3971 28.2897 39.5907C28.7928 39.7455 29.3347 39.9003 29.8765 39.9777C30.2635 40.0551 30.6892 40.0938 31.1149 40.0938C31.2697 40.0938 31.3858 40.1325 31.5406 40.1325C32.2759 40.1325 33.0499 40.1325 33.7853 40.1325C34.985 40.0938 36.146 39.9003 37.2683 39.5133C37.8488 39.3198 38.4293 39.0489 38.9325 38.7006C39.1647 38.391 39.4356 38.12 39.6678 37.8104Z" fill="white"/>
<path d="M25.5035 40.1324C25.6196 40.3647 25.7744 40.5195 25.9679 40.713C26.4711 41.1774 27.0903 41.487 27.7482 41.7192C28.1739 41.874 28.5996 41.9901 29.0253 42.1062C29.3349 42.1836 29.6445 42.261 29.9928 42.2997C30.3024 42.3384 30.612 42.3771 30.883 42.3771C31.8505 42.4158 32.7793 42.4545 33.7468 42.3771C34.0177 42.3384 34.3273 42.3384 34.5982 42.3384C34.9465 42.2997 35.2948 42.261 35.6431 42.1836C36.1463 42.0675 36.6881 41.9514 37.1912 41.7579C37.8878 41.5257 38.5457 41.2161 39.1262 40.7516C39.3197 40.5968 39.4745 40.3647 39.668 40.1324C39.668 40.4421 39.668 40.713 39.668 41.0226C39.7067 41.7192 39.281 42.1062 38.7779 42.4932C38.2361 42.9189 37.5782 43.1511 36.959 43.3446C36.3785 43.5381 35.7592 43.6542 35.14 43.7703C34.6369 43.8477 34.1725 43.8864 33.6694 43.9251C33.0889 43.9638 32.5084 43.9638 31.9279 43.9638C31.657 43.9638 31.3861 43.9251 31.0765 43.8864C30.8443 43.8864 30.5733 43.8477 30.3411 43.809C29.8767 43.7703 29.451 43.6542 29.0253 43.5768C28.2513 43.422 27.516 43.1511 26.8194 42.7641C26.4324 42.5319 26.0454 42.2997 25.7358 41.9127C25.5423 41.6805 25.4648 41.4483 25.4648 41.1387C25.4648 40.8291 25.4648 40.5195 25.4648 40.2099C25.4648 40.2486 25.4648 40.2098 25.5035 40.1324Z" fill="white"/>
<path d="M42.0674 25.736C42.0674 26.2391 41.8352 26.7035 41.4482 27.0905C41.0999 27.4388 40.6742 27.6323 40.2098 27.7097C39.7841 27.7484 39.3971 27.6324 39.0488 27.4388C38.4683 27.0905 38.12 26.6261 38.0039 26.0069C37.8878 25.2716 38.1974 24.6911 38.7005 24.188C39.1262 23.801 39.668 23.6461 40.2098 23.6848C41.0999 23.8009 41.8352 24.4589 42.0287 25.3103C42.0674 25.4651 42.0674 25.5812 42.0674 25.736Z" fill="white"/>
<path d="M28.0189 11.8424C29.2186 11.8424 29.954 12.6938 30.0314 13.5839C30.1088 14.2031 29.9153 14.7837 29.4509 15.2481C29.0638 15.6351 28.5994 15.8286 28.0963 15.8286C26.7805 15.8286 26.0839 15.0545 25.9678 14.0096C25.8904 12.6164 26.974 11.765 28.0189 11.8424Z" fill="white"/>
<path d="M45.9761 25.6198C45.8987 25.3102 45.9374 25.0393 45.9374 24.7297C46.0148 25.0006 45.9761 25.3102 45.9761 25.6198Z" fill="white"/>
</svg>
