<svg width="56" height="56" viewBox="0 0 56 56" fill="none" xmlns="http://www.w3.org/2000/svg">
<path d="M34.3276 56H21.6724C9.71389 56 0 46.2861 0 34.3276V21.6724C0 9.71389 9.71389 0 21.6724 0H34.3276C46.2861 0 56 9.71389 56 21.6724V34.3276C56 46.2861 46.2861 56 34.3276 56Z" fill="#E11F1D"/>
<path d="M32.6249 35.4111C32.6249 35.0241 32.6249 34.7145 32.6249 34.4049C32.6249 33.2438 32.6249 32.0828 32.6249 30.9605C32.6249 30.1091 32.741 29.9543 33.6311 29.9543C34.3664 29.9543 35.1017 29.9543 35.837 29.9543C35.9531 29.9543 36.108 29.9543 36.2628 29.9543C36.2628 29.7608 36.2628 29.6446 36.2628 29.4898C36.2628 28.1353 36.2628 26.7808 36.2628 25.3876C36.2628 24.6136 36.4563 24.4587 37.1916 24.4587C38.817 24.4587 40.4424 24.4587 42.0679 24.4587C42.8032 24.4587 42.9967 24.6523 42.9967 25.3876C42.9967 26.7421 42.9967 28.0966 42.9967 29.4898C42.9967 29.6446 42.9967 29.7608 42.9967 29.9543C43.3837 29.9543 43.6933 29.9543 44.0416 29.9543C44.6221 29.9543 44.8543 30.1478 44.8543 30.767C44.8543 32.1602 44.8543 33.5534 44.8543 34.9466C44.8543 35.1014 44.8543 35.2176 44.8543 35.3724C45.28 35.4885 45.7057 35.5659 46.0927 35.7207C47.1764 36.2238 47.8343 37.0752 47.8343 38.3136C47.873 39.0877 47.873 39.9391 47.6795 40.6744C47.3312 41.8741 46.4024 42.532 45.2026 42.7255C45.0091 42.7642 44.7769 42.7642 44.5834 42.7642C34.2116 42.7642 23.8398 42.7642 13.468 42.7642C12.0748 42.7642 10.9911 42.2224 10.4106 40.9066C10.0236 40.0552 10.101 39.1651 10.1784 38.2749C10.2945 36.8817 11.146 35.8755 12.5005 35.5272C12.8488 35.4498 13.1971 35.4111 13.5454 35.4111C19.7375 35.4111 25.9683 35.4111 32.1605 35.4111C32.2379 35.4111 32.3927 35.4111 32.6249 35.4111ZM28.987 36.6108C26.1231 36.6108 23.2593 36.6108 20.3567 36.6108C17.9573 36.6108 15.5965 36.6108 13.1971 36.6108C12.2296 36.6108 11.4556 37.1139 11.3395 38.004C11.2234 38.6619 11.2234 39.3586 11.3395 40.0165C11.4943 40.9453 12.2683 41.4484 13.3906 41.4484C23.7624 41.4484 34.0955 41.4484 44.4673 41.4484C44.6221 41.4484 44.7382 41.4484 44.893 41.4484C45.8993 41.3323 46.5572 40.597 46.5959 39.5907C46.5959 39.3198 46.5959 39.0102 46.5959 38.7393C46.6733 37.5009 45.8605 36.6108 44.4673 36.6108C39.3201 36.6495 34.1729 36.6108 28.987 36.6108ZM37.5399 25.6585C37.5399 27.0904 37.5399 28.4836 37.5399 29.8768C38.9718 29.8768 40.365 29.8768 41.7196 29.8768C41.7196 28.4449 41.7196 27.0517 41.7196 25.6585C40.2876 25.6585 38.9331 25.6585 37.5399 25.6585ZM33.8633 31.154C33.8633 32.5859 33.8633 33.9792 33.8633 35.3724C35.2952 35.3724 36.6885 35.3724 38.0817 35.3724C38.0817 33.9405 38.0817 32.5472 38.0817 31.154C36.6498 31.154 35.2952 31.154 33.8633 31.154ZM39.3201 35.3724C40.752 35.3724 42.1453 35.3724 43.5385 35.3724C43.5385 33.9405 43.5385 32.5472 43.5385 31.154C42.1066 31.154 40.7133 31.154 39.3201 31.154C39.3201 32.5859 39.3201 33.9405 39.3201 35.3724Z" fill="white"/>
<path d="M27.3998 28.1739C26.7419 28.4448 26.084 28.677 25.4648 28.9479C25.3874 28.9866 25.31 29.1801 25.31 29.2962C25.31 30.2637 25.31 31.1926 25.31 32.1601C25.31 32.7793 25.1165 32.9728 24.4973 32.9728C23.4137 32.9728 22.33 32.9728 21.2464 32.9728C20.6272 32.9728 20.4337 32.7793 20.4337 32.1601C20.4337 31.1926 20.4337 30.2637 20.4337 29.2962C20.4337 29.064 20.3563 28.9479 20.1241 28.8705C19.621 28.677 19.1179 28.4835 18.6535 28.2513C18.46 28.1352 18.3051 28.1739 18.1503 28.3287C17.4924 29.0253 16.7958 29.6832 16.1379 30.3799C15.7122 30.8056 15.4026 30.8056 15.0156 30.3799C14.2416 29.6058 13.4676 28.8318 12.6935 28.0578C12.3065 27.6708 12.3065 27.3612 12.6935 26.9742C13.3902 26.2776 14.0481 25.581 14.7447 24.9231C14.8995 24.7683 14.9382 24.6521 14.8221 24.4199C14.5899 23.9555 14.3964 23.4524 14.2029 22.9493C14.1255 22.7171 14.0094 22.6397 13.7385 22.6397C12.8096 22.6397 11.8808 22.6397 10.952 22.6397C10.2941 22.6397 10.1006 22.4462 10.1006 21.7883C10.1006 20.7046 10.1006 19.621 10.1006 18.5761C10.1006 17.9569 10.2941 17.7634 10.9133 17.7634C11.8808 17.7634 12.8096 17.7634 13.7772 17.7634C14.0094 17.7634 14.1255 17.686 14.2029 17.4538C14.4351 16.8346 14.6673 16.2541 14.9382 15.6349C14.2416 14.9383 13.5063 14.2029 12.7709 13.4676C12.3065 13.0032 12.3065 12.7323 12.7709 12.2292C13.5063 11.4939 14.2803 10.7198 15.0156 9.98452C15.4413 9.55882 15.7509 9.55882 16.1766 9.98452C16.8345 10.6424 17.5311 11.3004 18.1891 11.997C18.3826 12.1905 18.4987 12.1905 18.7309 12.0744C19.3114 11.8035 19.8919 11.5713 20.4724 11.3004C20.4724 10.2941 20.4724 9.24922 20.4724 8.2043C20.4724 7.54639 20.6659 7.35291 21.3238 7.31421C22.3687 7.31421 23.4137 7.31421 24.4586 7.31421C25.1165 7.31421 25.31 7.50768 25.31 8.2043C25.31 9.24922 25.31 10.2554 25.31 11.2617C25.9679 11.5326 26.5484 11.8035 27.1676 12.0744C27.2837 12.1131 27.4773 12.0357 27.5547 11.9583C28.2513 11.3004 28.9092 10.6037 29.6058 9.94583C30.0315 9.52012 30.3411 9.52012 30.7668 9.94583C31.5408 10.7198 32.2761 11.4552 33.0501 12.2292C33.4759 12.6549 33.4759 12.9645 33.0501 13.3902C32.3148 14.1255 31.5795 14.8608 30.8442 15.5961C31.1151 16.254 31.3473 16.912 31.6182 17.5312C31.6569 17.6473 31.8504 17.7247 31.9665 17.7247C32.934 17.7247 33.8629 17.7247 34.8304 17.7247C35.4109 17.7247 35.6431 17.9182 35.6431 18.5374C35.6431 19.6211 35.6431 20.7046 35.6431 21.7883C35.6431 22.3688 35.4109 22.601 34.8304 22.601C33.9016 22.601 32.9341 22.601 32.0052 22.601C31.773 22.601 31.6182 22.6397 31.5408 22.9106C31.3473 23.4137 31.1538 23.9168 30.9216 24.3812C30.8055 24.6134 30.8442 24.7295 30.999 24.8843C31.6569 25.5422 32.3535 26.2002 33.0115 26.8968C33.4759 27.3612 33.4759 27.6321 33.0115 28.0965C32.2761 28.8318 31.5408 29.5671 30.7668 30.3024C30.2637 30.8055 30.0315 30.8055 29.5284 30.3024C28.8318 29.6058 28.1352 28.9092 27.3998 28.1739ZM15.5961 29.1801C16.2927 28.4835 16.9893 27.7869 17.686 27.0903C18.073 26.7033 18.2665 26.7033 18.7696 26.9355C19.5049 27.2838 20.2402 27.5934 20.9755 27.8643C21.5173 28.0578 21.6721 28.1739 21.6721 28.7931C21.6721 28.9479 21.6721 29.1414 21.6721 29.2962C21.6721 30.1089 21.6721 30.9217 21.6721 31.7344C22.4848 31.7344 23.2589 31.7344 24.0716 31.7344C24.0716 31.5796 24.0716 31.4635 24.0716 31.3474C24.0716 30.4573 24.0716 29.5284 24.0716 28.6383C24.0716 28.2513 24.2651 28.0191 24.6134 27.903C25.4261 27.5934 26.2388 27.2451 27.0128 26.8968C27.3611 26.742 27.632 26.742 27.9029 27.0129C28.1739 27.2838 28.4061 27.516 28.677 27.7869C29.1414 28.2513 29.6445 28.7544 30.0702 29.1801C30.6507 28.5996 31.2312 28.0191 31.8117 27.4386C31.1151 26.7807 30.4185 26.0454 29.7219 25.3488C29.3736 25.0005 29.3736 24.8069 29.5671 24.3812C29.9154 23.6072 30.225 22.8332 30.5346 22.0205C30.6894 21.5948 30.8442 21.44 31.3473 21.44C32.2374 21.44 33.0889 21.44 33.979 21.44C34.1338 21.44 34.2499 21.44 34.4047 21.44C34.4047 20.5886 34.4047 19.8145 34.4047 19.0018C33.3598 19.0018 32.3535 19.0018 31.3473 19.0018C30.8442 19.0018 30.7281 18.8857 30.5346 18.3826C30.2637 17.6473 29.9541 16.912 29.6445 16.1766C29.3736 15.5961 29.3736 15.4413 29.7993 15.0156C30.4959 14.319 31.1925 13.6224 31.8504 12.9645C31.2699 12.384 30.7281 11.8422 30.1476 11.2617C30.0702 11.3391 29.9928 11.4165 29.8767 11.4939C29.2575 12.1131 28.5996 12.7323 27.9804 13.3902C27.7094 13.6998 27.3998 13.6998 27.0128 13.545C26.2001 13.1967 25.4261 12.8484 24.5747 12.5388C24.2264 12.4227 24.0329 12.1905 24.0329 11.8035C24.0329 11.223 24.0329 10.6038 24.0329 10.0233C24.0329 9.59755 24.0329 9.13315 24.0329 8.66874C23.1814 8.66874 22.4074 8.66874 21.5947 8.66874C21.5947 9.71366 21.5947 10.6811 21.5947 11.6874C21.5947 12.1905 21.4399 12.3453 20.9755 12.5001C20.2015 12.771 19.4275 13.0806 18.6922 13.4289C18.1891 13.6611 18.0343 13.6611 17.6085 13.2741C17.2215 12.8871 16.8345 12.5001 16.4475 12.1131C16.1379 11.8035 15.8283 11.4552 15.5187 11.1843C14.8995 11.8035 14.3577 12.3453 13.7772 12.9258C14.4738 13.6224 15.2091 14.3577 15.9444 15.0544C16.254 15.3253 16.254 15.6349 16.0992 16.0219C15.7509 16.8346 15.4026 17.6086 15.093 18.4213C14.9769 18.7696 14.7834 18.9631 14.3964 18.9631C13.5063 18.9631 12.5775 18.9631 11.6873 18.9631C11.5325 18.9631 11.4164 18.9631 11.2616 18.9631C11.2616 19.8145 11.2616 20.5885 11.2616 21.4013C12.2678 21.4013 13.2354 21.4013 14.2029 21.4013C14.8608 21.4013 14.9769 21.5174 15.1704 22.1366C15.4026 22.8332 15.7122 23.5298 16.0218 24.1877C16.3314 24.8069 16.3314 24.9617 15.867 25.4261C15.1704 26.1228 14.5125 26.7807 13.8546 27.4386C14.4351 28.0191 14.9769 28.5609 15.5961 29.1801Z" fill="white"/>
<path d="M28.9475 40.8679C27.9413 40.8679 27.1285 40.0552 27.0898 39.0489C27.0898 38.0427 27.9026 37.23 28.9088 37.23C29.915 37.23 30.7277 38.0427 30.7664 39.0489C30.8051 40.0552 29.9537 40.8679 28.9475 40.8679ZM28.9475 39.6681C29.2958 39.6681 29.5667 39.4359 29.5667 39.0876C29.5667 38.7393 29.3345 38.4684 28.9862 38.4684C28.6766 38.4684 28.367 38.7393 28.367 39.0489C28.367 39.3973 28.5992 39.6294 28.9475 39.6681Z" fill="white"/>
<path d="M33.2432 39.0489C33.2432 38.0427 34.0559 37.23 35.0621 37.23C36.0683 37.23 36.881 38.0427 36.881 39.0489C36.881 40.0552 36.0683 40.8679 35.0621 40.8679C34.0172 40.8679 33.2432 40.0552 33.2432 39.0489ZM35.6426 39.0489C35.6426 38.7393 35.333 38.4684 35.0234 38.4684C34.7138 38.4684 34.4429 38.778 34.4429 39.0876C34.4429 39.3972 34.7138 39.6681 35.0621 39.6681C35.4104 39.6294 35.6426 39.3586 35.6426 39.0489Z" fill="white"/>
<path d="M18.6144 39.0489C18.6144 40.0552 17.763 40.8679 16.7955 40.8679C15.7893 40.8679 14.9766 40.0165 14.9766 39.0489C14.9766 38.0427 15.7893 37.23 16.7955 37.23C17.8017 37.23 18.6144 38.0814 18.6144 39.0489ZM16.7568 38.4684C16.4472 38.4684 16.1763 38.778 16.1763 39.0876C16.1763 39.4359 16.4472 39.6681 16.7955 39.6681C17.1438 39.6681 17.376 39.3973 17.376 39.0489C17.3373 38.7006 17.0664 38.4297 16.7568 38.4684Z" fill="white"/>
<path d="M24.6906 39.0876C24.6906 40.0939 23.8779 40.9066 22.8717 40.9066C21.8655 40.9066 21.0527 40.0552 21.0527 39.0489C21.0527 38.0427 21.8655 37.23 22.8717 37.23C23.8779 37.2687 24.6906 38.0427 24.6906 39.0876ZM22.8717 38.4684C22.5621 38.4684 22.2525 38.7393 22.2525 39.0489C22.2525 39.3586 22.5234 39.6294 22.833 39.6681C23.1813 39.6681 23.4522 39.3972 23.4522 39.0876C23.4909 38.7393 23.1813 38.4684 22.8717 38.4684Z" fill="white"/>
<path d="M42.9576 39.1264C42.9189 40.1713 42.0674 40.9453 41.0612 40.9066C40.0937 40.8679 39.281 40.0165 39.3197 39.0103C39.3584 37.9654 40.2098 37.1914 41.2547 37.2688C42.2222 37.3075 42.9963 38.1202 42.9576 39.1264ZM41.7578 39.049C41.7578 38.7394 41.4869 38.4298 41.1773 38.4298C40.8677 38.4298 40.5968 38.7007 40.5581 39.0103C40.5581 39.3586 40.7903 39.5908 41.1386 39.6295C41.4482 39.6682 41.7191 39.3973 41.7578 39.049Z" fill="white"/>
<path d="M22.872 13.4678C26.5873 13.4678 29.5672 16.4478 29.5672 20.163C29.5672 23.8783 26.5486 26.8583 22.872 26.8583C19.1954 26.8583 16.2155 23.8396 16.1768 20.163C16.1768 16.4865 19.1567 13.4678 22.872 13.4678ZM22.8333 25.6585C25.852 25.6585 28.3288 23.2204 28.3288 20.2017C28.3288 17.1831 25.8906 14.7062 22.872 14.7062C19.8533 14.7062 17.3765 17.1444 17.3765 20.163C17.3378 23.143 19.8146 25.6198 22.8333 25.6585Z" fill="white"/>
<path d="M22.8724 15.2866C25.5814 15.2866 27.7487 17.4926 27.7487 20.1629C27.7487 22.8333 25.5814 25.0005 22.8724 25.0392C20.202 25.0392 17.9961 22.8333 17.9961 20.1629C17.9961 17.4926 20.1633 15.2866 22.8724 15.2866ZM19.2345 20.1629C19.2345 22.1753 20.8987 23.8008 22.9111 23.8008C24.9235 23.8008 26.5103 22.1753 26.549 20.1629C26.549 18.1892 24.8848 16.4863 22.9111 16.4863C20.86 16.525 19.2345 18.1892 19.2345 20.1629Z" fill="white"/>
</svg>
