<svg width="56" height="56" viewBox="0 0 56 56" fill="none" xmlns="http://www.w3.org/2000/svg">
<path d="M34.3276 56H21.6724C9.71389 56 0 46.2861 0 34.3276V21.6724C0 9.71389 9.71389 0 21.6724 0H34.3276C46.2861 0 56 9.71389 56 21.6724V34.3276C56 46.2861 46.2861 56 34.3276 56Z" fill="#E11F1D"/>
<path d="M49.3821 39.1651C48.8402 39.5908 48.3371 39.5909 48.1436 38.8555C48.0275 38.5072 48.0662 38.0815 48.0275 37.6171C34.8693 37.6171 21.7497 37.6171 8.55274 37.6171C8.47534 38.1202 8.43663 38.5846 8.28183 39.049C8.24313 39.2038 7.93353 39.436 7.81743 39.3973C7.58522 39.3586 7.27562 39.1651 7.23692 38.9716C7.12081 38.5459 7.15951 38.1202 7.15951 37.6558C7.15951 32.4312 7.15951 27.2066 7.15951 21.9433C7.15951 19.5438 7.54652 19.1181 10.0234 18.9246C10.1395 18.9246 10.2169 18.8472 10.4878 18.7311C10.4878 17.3766 10.4878 15.9834 10.4878 14.5514C10.4878 13.0808 10.5652 13.0034 11.9197 13.0034C14.5127 13.0034 17.1056 12.9647 19.6986 13.0034C20.8983 13.0034 21.0144 13.1582 21.0531 14.3192C21.0918 15.7899 21.0531 17.2605 21.0531 18.8472C21.711 18.8859 22.2528 18.9246 23.0268 18.9633C23.0268 17.8023 22.9881 16.7574 23.0268 15.6738C23.0655 14.474 23.1429 14.3579 24.3814 14.3192C27.013 14.2805 29.6834 14.2805 32.315 14.3192C33.476 14.3192 33.5921 14.474 33.6308 15.7125C33.6695 16.7574 33.6308 17.7636 33.6308 18.8859C34.3275 18.8859 34.8693 18.8859 35.6046 18.8859C35.6046 18.228 35.6433 17.6088 35.6046 16.9509C35.5659 16.0607 35.9142 15.6351 36.843 15.6351C39.5521 15.6738 42.2224 15.6738 44.9315 15.6351C45.8603 15.6351 46.2473 15.9834 46.1699 16.9122C46.1312 17.4927 46.1699 18.1119 46.1699 18.8085C47.447 19.002 48.8016 18.8859 49.4595 20.2792C49.3821 26.6261 49.3821 32.8956 49.3821 39.1651ZM10.4104 27.5549C10.4104 26.4326 10.3717 25.3876 10.4104 24.304C10.4491 23.1043 10.5265 22.9882 11.7649 22.9882C14.3579 22.9495 16.9508 22.9495 19.5051 22.9882C20.8209 22.9882 20.937 23.1043 20.9757 24.3814C21.0144 25.4264 20.9757 26.4326 20.9757 27.4775C21.7497 27.4775 22.2915 27.4775 22.9494 27.4775C22.9494 26.7035 22.9494 26.0456 22.9494 25.3877C22.9494 24.6523 23.259 24.2653 24.0331 24.2653C26.8195 24.2653 29.6447 24.2653 32.4311 24.2653C33.2051 24.2653 33.5147 24.6523 33.5147 25.3877C33.5147 26.0843 33.5147 26.7809 33.5147 27.5162C34.2888 27.5162 34.7919 27.5162 35.2176 27.5162C35.5272 27.0131 35.7981 26.5874 36.2238 26.0069C36.6108 26.7035 36.843 27.0905 37.0752 27.5936C38.2749 27.5936 39.5521 27.5936 40.8292 27.5936C42.1063 27.5936 43.4221 27.5549 44.6606 27.5549C44.6606 25.9295 44.6606 24.5362 44.6606 23.1043C41.9902 23.1043 39.436 23.1043 36.9204 23.1043C36.843 23.6461 36.8817 24.1105 36.7269 24.4975C36.5721 24.8845 35.9916 25.1167 35.8368 24.691C35.6046 23.9557 35.5272 23.1043 35.6046 22.2916C35.682 21.595 36.3786 21.6337 36.9204 21.6337C39.5134 21.6337 42.1063 21.6337 44.6606 21.6337C45.9764 21.6337 46.0538 21.7498 46.0925 23.0656C46.1312 24.5362 46.0925 26.0069 46.0925 27.4388C46.8665 27.4388 47.4083 27.4388 48.0662 27.4388C48.0662 26.1617 48.1049 25.0006 48.0662 23.8783C48.0275 22.756 48.2984 21.595 47.834 20.4339C34.7145 20.4339 21.6723 20.4339 8.43664 20.4339C8.35924 22.8721 8.39794 25.1941 8.39794 27.5549C9.17196 27.5549 9.67506 27.5549 10.4104 27.5549ZM48.0275 29.0255C34.7532 29.0255 21.6336 29.0255 8.43664 29.0255C8.43664 31.4637 8.39794 33.8244 8.43664 36.2239C9.21066 36.1852 9.75246 36.1464 10.4104 36.1077C10.4104 35.295 10.4104 34.5984 10.4104 33.9018C10.4104 33.3213 10.6813 32.9343 11.2618 32.9343C11.8036 32.8956 12.3841 32.8569 12.8872 32.973C13.1581 33.0117 13.3516 33.36 13.5838 33.5535C13.3903 33.7857 13.2355 34.0953 12.9646 34.2114C12.5776 34.3663 12.1519 34.3663 11.6875 34.405C11.7262 35.0629 11.7649 35.566 11.7649 36.1465C14.4353 36.1465 16.9895 36.1465 19.5438 36.1465C19.5438 35.4886 19.5438 34.9855 19.5438 34.2501C18.2666 34.2501 17.0669 34.2888 15.9059 34.2114C15.635 34.2114 15.3641 33.8244 15.0932 33.6309C15.3641 33.3987 15.5963 33.0117 15.9059 33.0117C17.2604 32.9343 18.6536 32.973 20.0469 32.973C20.7435 32.973 21.0144 33.3987 21.0144 34.0566C21.0144 34.7533 21.0144 35.4499 21.0144 36.1465C21.7884 36.1465 22.3689 36.1465 22.9881 36.1465C22.9881 34.5985 22.9881 33.1665 22.9881 31.7346C23.0268 30.4575 23.1429 30.3026 24.4201 30.3026C26.8969 30.2639 29.3738 30.3026 31.8506 30.3026C33.5147 30.3026 33.5534 30.3801 33.5534 32.1216C33.5534 33.4761 33.5534 34.8307 33.5534 36.1852C34.3275 36.1852 34.8306 36.1852 35.5272 36.1852C35.5272 35.0629 35.4885 34.0566 35.5272 33.0117C35.5659 31.812 35.682 31.6572 36.843 31.6185C39.4747 31.5798 42.1063 31.5798 44.7767 31.6185C45.9764 31.6185 46.0925 31.7733 46.0925 32.973C46.1312 34.0566 46.0925 35.1015 46.0925 36.2626C46.9052 36.2239 47.4083 36.1852 48.0275 36.1465C48.0275 33.7083 48.0275 31.425 48.0275 29.0255ZM11.8036 19.002C13.2355 19.002 14.5127 19.002 15.7511 19.002C17.0282 19.002 18.344 18.9633 19.5825 18.9633C19.5825 17.3379 19.5825 15.9447 19.5825 14.4741C16.9508 14.4741 14.3966 14.4741 11.8036 14.4741C11.8036 15.9834 11.8036 17.4153 11.8036 19.002ZM32.1215 36.1077C32.1215 34.5984 32.1215 33.1278 32.1215 31.6572C29.4899 31.6572 26.9356 31.6572 24.4201 31.6572C24.4201 33.2052 24.4201 34.6758 24.4201 36.1077C27.0517 36.1077 29.5286 36.1077 32.1215 36.1077ZM24.3814 18.9246C27.013 18.9246 29.5286 18.9246 32.1215 18.9246C32.1215 17.841 32.1215 16.8348 32.1215 15.8286C29.4512 15.8286 26.9356 15.8286 24.3814 15.8286C24.3814 16.9122 24.3814 17.8797 24.3814 18.9246ZM11.8036 27.4775C14.474 27.4775 17.0282 27.4775 19.5051 27.4775C19.5051 26.3552 19.5051 25.349 19.5051 24.3814C16.8734 24.3814 14.3579 24.3814 11.8036 24.3814C11.8036 25.4264 11.8036 26.3939 11.8036 27.4775ZM36.9204 36.1077C39.5908 36.1077 42.1063 36.1077 44.6219 36.1077C44.6219 34.9854 44.6219 33.9792 44.6219 33.0117C41.9902 33.0117 39.4747 33.0117 36.9204 33.0117C36.9204 34.0179 36.9204 34.9854 36.9204 36.1077ZM36.9204 18.8859C39.5908 18.8859 42.145 18.8859 44.6993 18.8859C44.6993 18.2667 44.6993 17.7249 44.6993 17.1057C42.0676 17.1057 39.5521 17.1057 36.9204 17.1057C36.9204 17.7249 36.9204 18.228 36.9204 18.8859ZM24.3427 27.4775C27.0904 27.4775 29.606 27.4775 32.1215 27.4775C32.1215 26.8196 32.1215 26.2778 32.1215 25.736C29.4899 25.736 26.9356 25.736 24.3427 25.736C24.3427 26.3552 24.3427 26.8583 24.3427 27.4775Z" fill="white"/>
</svg>
