<svg width="56" height="56" viewBox="0 0 56 56" fill="none" xmlns="http://www.w3.org/2000/svg">
<path d="M34.3276 56H21.6724C9.7139 56 0 46.2861 0 34.3276V21.6724C0 9.71389 9.7139 0 21.6724 0H34.3276C46.2861 0 56 9.71389 56 21.6724V34.3276C56 46.2861 46.2861 56 34.3276 56Z" fill="#E11F1D"/>
<path d="M12.7715 35.9918C13.1585 34.8695 13.9325 34.289 15.0161 33.8633C16.6029 33.2828 18.1122 32.5862 19.6602 31.9282C20.6277 31.5412 20.6277 31.5412 20.6277 30.4963C20.6277 30.3028 20.6277 30.1093 20.6277 29.9545C19.9698 29.4901 19.3506 29.1031 18.8088 28.6387C18.2283 28.1743 18.0348 27.4776 17.8413 26.7036C17.6091 26.6649 17.3382 26.6649 17.106 26.6262C16.1772 26.5101 15.6353 25.9683 15.4418 25.0782C15.4418 25.0395 15.4031 25.0395 15.4418 25.0008C15.5192 23.8011 15.0161 22.7174 14.8613 21.5564C14.3969 17.4928 15.7901 14.242 19.2345 11.9587C19.6215 11.7264 19.8537 11.4555 19.9311 10.9911C20.0859 9.90751 20.8212 9.17217 21.7114 8.59166C23.5303 7.46933 26.1233 7.58545 27.71 8.90128C28.4066 9.44309 28.9097 10.101 29.0258 11.0298C29.0645 11.4555 29.2967 11.6877 29.645 11.8812C31.9671 13.3519 33.4764 15.403 34.0182 18.112C34.3665 19.7375 34.2504 21.3242 33.786 22.9109C33.6699 23.3366 33.5925 23.8011 33.5925 24.2268C33.5538 25.8909 33.0507 26.4327 31.3866 26.6262C31.3092 26.6262 31.2318 26.6649 31.0769 26.7036C30.8834 28.3291 29.6837 29.1418 28.3679 29.761C28.1744 31.8121 28.4066 31.5412 29.645 32.0443C31.1931 32.7022 32.7024 33.3601 34.2891 33.9794C35.5662 34.4825 36.2242 35.5274 36.1855 36.8045C36.1468 37.9268 36.1468 39.0879 36.1855 40.2102C36.2242 41.2551 35.3727 42.3 34.0956 42.3C27.71 42.2613 21.2857 42.2613 14.9 42.3C13.8551 42.3 13.2359 41.7582 12.7715 40.9068C12.7715 39.2814 12.7715 37.656 12.7715 35.9918ZM32.7411 21.8273C33.5925 19.0409 32.3928 15.0934 29.1419 13.0422C25.891 10.9524 21.5179 11.3007 18.6153 13.8937C16.3707 15.9061 15.2096 19.8149 16.2159 21.8273C16.4094 21.7499 16.5642 21.7112 16.7577 21.6338C16.9512 21.5951 17.106 21.5177 17.2995 21.479C17.3769 20.2406 17.3769 20.2793 18.5379 20.2406C19.6989 20.1632 20.8599 20.0858 22.021 19.8923C24.8074 19.3505 27.323 18.2282 29.258 16.0609C29.2967 15.9835 29.3741 15.9448 29.4515 15.8674C29.7611 15.5965 29.9933 15.5965 30.2642 15.8287C30.5351 16.0996 30.5351 16.3705 30.3029 16.6414C29.9546 17.0284 29.6063 17.4155 29.258 17.7638C27.1682 19.5827 24.73 20.6276 22.021 21.092C20.8986 21.2855 19.7763 21.4016 18.6153 21.5177C18.7701 23.2593 18.9249 25.0008 19.1184 26.7423C19.1958 27.3228 19.5441 27.7872 20.0859 28.0969C21.2083 28.7548 22.3693 29.374 23.4916 29.9932C24.2269 30.4189 24.9235 30.3028 25.5814 29.9158C26.6264 29.3353 27.6713 28.7547 28.7162 28.1742C28.9097 28.0581 29.0645 27.942 29.258 27.7872C29.1419 27.7485 29.0645 27.7098 29.0258 27.7485C27.9035 28.2516 26.7425 28.4065 25.5427 28.5226C25.1944 28.5613 24.8461 28.5612 24.5365 28.5612C24.1495 28.5225 23.8399 28.2516 23.8786 27.942C23.9173 27.5937 24.1495 27.4002 24.4978 27.4002C24.6139 27.4002 24.73 27.4002 24.8461 27.4002C25.6975 27.2841 26.549 27.2455 27.3617 27.052C28.1357 26.8584 28.8323 26.4714 29.5289 26.1231C29.7224 26.0457 29.9159 25.7361 29.9546 25.5426C30.1094 24.1881 30.2255 22.8336 30.3416 21.479C30.3803 21.1694 30.2642 20.9372 30.032 20.7437C29.7611 20.5115 29.4902 20.2406 29.258 19.9697C29.0258 19.6988 29.0645 19.3505 29.2967 19.1183C29.5676 18.8861 29.8385 18.8861 30.0707 19.1183C30.7286 19.8149 31.7736 20.2793 31.5801 21.479C32.0058 21.6338 32.3928 21.7112 32.7411 21.8273ZM33.9795 35.2178C32.625 34.676 31.4253 34.1342 30.1481 33.6311C28.7936 35.2565 27.1682 36.5336 25.0783 37.0367C25.0783 37.4237 25.0783 37.7333 25.0783 38.0429C25.0783 38.3912 25.0783 38.7396 25.0783 39.0492C25.0396 39.4749 24.8461 39.6297 24.4978 39.6297C24.1108 39.6297 23.9173 39.3975 23.8786 39.0492C23.8786 38.8557 23.8786 38.6622 23.8786 38.4687C23.8786 38.0043 23.8786 37.5011 23.8786 37.0367C21.7114 36.5336 20.1633 35.2565 18.8088 33.6311C17.5317 34.1729 16.2933 34.676 14.9774 35.2565C15.5966 35.7596 16.1385 36.1853 16.6803 36.611C17.5317 37.2689 17.9574 38.0816 17.88 39.204C17.8413 39.8619 17.88 40.4811 17.88 41.139C22.3306 41.139 26.6651 41.139 31.0383 41.139C31.0383 40.4424 31.077 39.8232 31.0383 39.204C30.9996 38.1203 31.4253 37.2689 32.2767 36.611C32.8185 36.1466 33.3216 35.7209 33.9795 35.2178ZM20.0085 33.128C21.1309 34.4438 22.408 35.3726 23.9947 35.7983C24.3043 35.8757 24.6913 35.8757 25.0009 35.7983C26.5877 35.3726 27.8261 34.4438 28.9871 33.128C27.6326 32.7796 27.0521 31.9282 27.0908 30.5737C26.2007 31.1155 25.4266 31.5799 24.4978 31.5799C23.5303 31.6186 22.7563 30.9994 21.8275 30.5737C21.9823 31.9282 21.247 32.7022 20.0085 33.128ZM14.2034 36.1079C14.126 36.1466 14.0486 36.1853 14.0099 36.224C14.0099 37.6172 14.0099 39.0105 14.0099 40.4037C14.0099 40.7907 14.2034 41.1003 14.5904 41.139C15.287 41.1777 15.9837 41.139 16.719 41.139C16.719 40.2876 16.7577 39.5523 16.719 38.8169C16.719 38.5073 16.6029 38.1591 16.4094 37.9655C15.674 37.2689 14.9387 36.6884 14.2034 36.1079ZM34.9857 36.1853C34.9083 36.1466 34.8309 36.1079 34.7922 36.1079C34.0569 36.6884 33.3603 37.269 32.6637 37.8882C32.5089 38.043 32.3541 38.2752 32.3541 38.4687C32.3154 39.3201 32.3541 40.2102 32.3541 41.1003C32.9346 41.1003 33.4377 41.1003 33.9795 41.1003C34.0956 41.1003 34.2117 41.1003 34.3278 41.1003C34.7922 41.0616 35.0244 40.8681 35.0631 40.4424C34.9857 39.0105 34.9857 37.6173 34.9857 36.1853ZM21.1309 10.9911C23.4142 10.3332 25.5427 10.2945 27.8648 11.0298C27.1295 9.59789 25.9297 9.09478 24.6139 9.09478C23.1433 9.05608 21.9049 9.5205 21.1309 10.9911ZM17.7639 25.4652C17.6865 24.4977 17.5704 23.6462 17.493 22.7561C16.719 22.9496 16.6029 23.0658 16.5642 23.6463C16.5642 23.9172 16.5642 24.2268 16.5642 24.4977C16.6029 25.233 16.7577 25.3878 17.7639 25.4652ZM31.1931 25.4652C32.1993 25.3878 32.3541 25.233 32.3928 24.4977C32.3928 24.1494 32.4315 23.8011 32.3928 23.4915C32.3154 22.9883 32.1606 22.8723 31.464 22.8336C31.3479 23.685 31.2705 24.5364 31.1931 25.4652Z" fill="white"/>
<path d="M51.2016 14.6289C51.0855 15.0159 51.0081 15.3642 50.892 15.7512C49.9245 18.8472 47.8346 20.7049 44.6225 21.3241C43.7711 21.4789 42.9196 21.5176 42.0682 21.2854C41.5651 21.1693 41.1781 21.2854 40.7137 21.5176C39.7849 21.9433 38.8174 22.2529 37.8498 22.6012C37.5789 22.7174 37.2306 22.7173 36.921 22.7173C36.7275 22.7173 36.4179 22.5625 36.3792 22.4077C36.3018 22.2142 36.3792 21.9046 36.4953 21.7111C36.8049 21.2854 37.1919 20.8984 37.5402 20.4727C37.7724 20.2018 37.9659 19.8922 38.2369 19.5439C38.0433 19.3504 37.8885 19.1569 37.7337 18.9634C35.6439 16.6026 35.0634 13.9322 36.1083 10.9523C37.1919 8.01102 39.3592 6.30818 42.4552 5.92118C47.0219 5.34067 50.5437 8.70763 51.0468 12.3068C51.0468 12.4229 51.1242 12.5777 51.2016 12.6938C51.2016 13.3904 51.2016 14.0096 51.2016 14.6289ZM38.74 21.0145C38.7787 21.0532 38.7787 21.0919 38.8174 21.1306C39.2818 20.8984 39.8236 20.7436 40.2493 20.434C40.8685 19.9696 41.4877 19.9309 42.223 20.0857C45.5513 20.8984 49.8471 18.4215 50.0019 13.7775C50.118 9.98478 46.8671 6.96611 43.268 7.04351C39.8236 7.12091 36.1083 10.3331 36.9984 14.9385C37.308 16.4478 38.082 17.6475 39.2044 18.6537C39.7462 19.1181 39.7462 19.273 39.3979 19.8922C39.1657 20.3179 38.9335 20.6662 38.74 21.0145Z" fill="white"/>
<path d="M27.0135 22.2142C27.6714 22.2529 28.2906 22.4077 28.6776 23.0269C28.9098 23.3752 28.8711 23.7623 28.6002 23.9558C28.2906 24.1493 28.0584 24.0719 27.7488 23.8396C27.1296 23.2591 26.8587 23.2591 26.2395 23.8396C25.9686 24.0719 25.6977 24.1493 25.3881 23.9558C25.1172 23.7623 25.0785 23.3752 25.3107 23.0269C25.7364 22.4464 26.3556 22.2916 27.0135 22.2142Z" fill="white"/>
<path d="M23.7243 23.3367C23.6856 23.9559 23.2599 24.1881 22.8728 23.9559C22.7954 23.9172 22.718 23.8011 22.6406 23.7237C22.0988 23.2593 21.7505 23.2593 21.2087 23.7237C21.1313 23.7624 21.0926 23.8785 21.0152 23.9172C20.783 23.9559 20.4734 24.0333 20.3186 23.9172C20.1638 23.8011 20.0864 23.4528 20.1251 23.2593C20.1638 23.0658 20.3573 22.8723 20.5121 22.7175C21.2474 22.0982 22.5632 22.0982 23.2599 22.7175C23.5308 22.911 23.6469 23.1819 23.7243 23.3367Z" fill="white"/>
<path d="M44.0419 13.0808C44.0419 14.2031 44.0419 15.3642 44.0419 16.4865C44.0419 16.7574 44.0419 16.9509 44.3516 17.1057C44.5064 17.1831 44.6225 17.5314 44.6225 17.7249C44.5838 18.0345 44.3129 18.1893 44.0032 18.1893C43.6549 18.1893 43.3066 18.1893 42.997 18.1893C42.61 18.1893 42.3004 18.0732 42.223 17.6862C42.1456 17.2992 42.3778 17.1057 42.6874 16.9896C42.7261 16.9896 42.7648 16.9122 42.8422 16.8348C42.8422 15.7125 42.8422 14.5514 42.8422 13.3904C42.8422 13.1195 42.7648 13.0034 42.5326 12.8486C42.3778 12.7325 42.223 12.4229 42.223 12.2294C42.223 11.9198 42.5326 11.765 42.8422 11.765C43.2292 11.7263 43.5775 11.765 43.9645 11.765C44.3129 11.765 44.5838 11.8811 44.6612 12.2681C44.7386 12.5777 44.5451 12.8099 44.2742 12.9647C44.1967 12.9647 44.1193 13.0421 44.0419 13.0808Z" fill="white"/>
<path d="M43.4229 9.172C43.7325 9.172 44.0034 9.48159 44.0034 9.7912C44.0034 10.0621 43.6551 10.3717 43.3842 10.3717C43.0746 10.3717 42.8037 10.0621 42.8037 9.75251C42.8424 9.4042 43.1133 9.172 43.4229 9.172Z" fill="white"/>
</svg>
