<svg width="56" height="56" viewBox="0 0 56 56" fill="none" xmlns="http://www.w3.org/2000/svg">
<path d="M34.2889 56.0001H21.6724C9.71389 56.0001 0 46.2862 0 34.3277V21.6726C0 9.71402 9.71389 0.00012207 21.6724 0.00012207H34.3276C46.2861 0.00012207 56 9.71402 56 21.6726V34.3277C55.9613 46.2862 46.2861 56.0001 34.2889 56.0001Z" fill="#E11F1D"/>
<path d="M36.9982 6.07617C37.153 6.26968 37.3852 6.46317 37.4626 6.69537C38.1592 8.166 38.8171 9.67534 39.5138 11.1073C39.7847 11.6491 39.9395 12.1909 39.8621 12.8101C39.8234 13.081 39.8621 13.3132 39.8621 13.6615C40.0169 13.6615 40.1717 13.6615 40.2878 13.6615C41.681 13.6615 43.0742 13.6615 44.4675 13.6615C46.0542 13.6615 47.2926 14.3195 47.9892 15.8288C48.2214 16.3706 48.3762 16.9898 48.3762 17.609C48.4149 25.2718 48.4149 32.9345 48.3762 40.5973C48.3762 42.8806 46.7121 44.5447 44.4288 44.5834C42.7646 44.6221 41.1005 44.5834 39.4751 44.5834C38.8559 44.5834 38.6236 44.3513 38.6236 43.732C38.6236 42.0292 38.6236 40.3263 38.6236 38.6235C38.6236 38.4687 38.6236 38.3526 38.6236 38.1978C34.9858 38.1978 31.3866 38.1978 27.7487 38.1978C27.7487 38.3526 27.7487 38.5074 27.7487 38.6623C27.7487 40.7908 27.7487 42.9193 27.7487 45.0866C27.7487 45.9767 27.5552 46.1315 26.7038 46.1315C24.9623 46.1315 23.2207 46.1315 21.5179 46.1315C20.8213 46.1315 20.5891 45.8993 20.5891 45.2026C20.5891 42.9967 20.5891 40.8295 20.5891 38.6235C20.5891 38.4687 20.5891 38.3526 20.5891 38.1204C20.4343 38.1204 20.2795 38.1204 20.1634 38.1204C18.3057 38.1204 16.4481 38.1204 14.5905 38.1204C11.9201 38.1204 9.90767 36.3789 9.48196 33.7472C9.40456 33.3215 9.44327 32.8958 9.44327 32.4701C9.44327 26.1619 9.44327 19.8924 9.44327 13.5841C9.44327 10.6429 11.6105 8.39823 14.5905 8.35953C15.4032 8.35953 16.2159 8.35953 17.0673 8.35953C17.6865 8.35953 17.9187 8.59171 17.9187 9.21092C17.9187 10.4881 17.9187 11.7652 17.9187 13.0423C17.9187 13.1971 17.9187 13.3132 17.9187 13.5454C23.182 13.5454 28.4066 13.5454 33.6699 13.5454C33.6699 13.4293 33.6699 13.3132 33.6699 13.1971C33.5925 12.3457 33.786 11.6104 34.1731 10.8364C34.831 9.48186 35.4502 8.0886 36.1081 6.69537C36.2242 6.46317 36.4564 6.26968 36.6112 6.07617C36.7273 6.07617 36.8434 6.07617 36.9982 6.07617ZM20.6278 36.882C20.6278 36.6498 20.6278 36.495 20.6278 36.3402C20.6278 30.8834 20.6278 25.3879 20.6278 19.9311C20.6278 19.1958 20.8213 19.0022 21.5566 19.0022C23.2981 19.0022 25.0397 19.0022 26.7425 19.0022C27.5939 19.0022 27.7874 19.157 27.7874 20.0471C27.7874 25.504 27.7874 30.9608 27.7874 36.3789C27.7874 36.5337 27.7874 36.6885 27.8261 36.882C28.0196 36.882 28.1744 36.882 28.3292 36.882C33.6313 36.882 38.8946 36.882 44.1966 36.882C44.9706 36.882 45.7446 36.9981 46.4025 37.3851C46.596 37.5012 46.8282 37.656 47.0604 37.8108C47.0604 37.656 47.0991 37.5786 47.0991 37.5012C47.0991 30.8447 47.0991 24.2269 47.0991 17.5703C47.0991 16.0223 46.0929 15.0547 44.5449 15.016C43.1129 15.016 41.7197 15.0161 40.2878 14.9773C40.1717 14.9773 40.0556 14.9773 39.8621 15.016C39.8621 15.2095 39.8621 15.3644 39.8621 15.5192C39.8621 19.5828 39.8621 23.685 39.8621 27.7486C39.8621 28.0969 39.8234 28.4065 39.8234 28.7548C39.7073 29.9158 38.8559 30.9608 37.7335 31.2704C36.4951 31.6574 35.3728 31.3478 34.4827 30.419C33.8634 29.7611 33.6699 28.9483 33.6699 28.0582C33.6699 23.8785 33.6699 19.6602 33.6699 15.4805C33.6699 15.3257 33.6699 15.1322 33.6699 14.9387C28.4066 14.9387 23.1433 14.9387 17.9187 14.9387C17.9187 15.0935 17.9187 15.2482 17.9187 15.403C17.9187 19.7762 17.9187 24.1494 17.9187 28.5226C17.9187 29.2579 17.7252 29.4128 17.0286 29.4128C16.2933 29.4128 15.558 29.3741 14.784 29.4128C14.2422 29.4515 13.7003 29.4901 13.1972 29.645C10.8752 30.3803 9.98508 33.4763 11.4944 35.3727C12.3071 36.4176 13.3907 36.882 14.7066 36.882C16.5255 36.882 18.3831 36.882 20.2021 36.882C20.3182 36.882 20.473 36.882 20.6278 36.882ZM16.5642 28.0969C16.5642 21.9435 16.5642 15.8288 16.5642 9.67536C15.945 9.67536 15.3258 9.67536 14.7066 9.67536C12.3458 9.67536 10.7204 11.2621 10.7204 13.6228C10.7204 18.8474 10.7204 24.1107 10.7204 29.3353C10.7204 29.4514 10.7204 29.5675 10.7591 29.7223C10.8752 29.6449 10.9139 29.5675 10.9913 29.5288C11.9975 28.5613 13.2359 28.0969 14.6292 28.0969C15.2484 28.0969 15.9063 28.0969 16.5642 28.0969ZM26.4716 44.8156C26.4716 36.6498 26.4716 28.4839 26.4716 20.3181C24.9623 20.3181 23.4529 20.3181 21.9436 20.3181C21.9436 21.1308 21.9436 21.9048 21.9436 22.7175C22.3693 22.7175 22.7563 22.7175 23.1433 22.7175C23.6464 22.7175 23.9173 22.9884 23.9173 23.3754C23.9173 23.7625 23.6077 23.9946 23.1433 23.9946C22.7563 23.9946 22.3693 23.9946 21.9823 23.9946C21.9823 24.6139 21.9823 25.233 21.9823 25.8523C22.2919 25.8523 22.5628 25.8523 22.8337 25.8523C23.2207 25.891 23.4917 26.1232 23.4917 26.4715C23.4917 26.8198 23.2207 27.0907 22.8337 27.0907C22.5628 27.0907 22.2919 27.0907 22.021 27.0907C22.021 27.7486 22.021 28.3291 22.021 28.9483C22.4854 28.9483 22.9111 28.9483 23.3756 28.9483C23.7239 28.9483 23.9174 29.1805 23.9948 29.4901C24.0335 29.7997 23.8787 30.032 23.6077 30.1481C23.4529 30.2255 23.2594 30.1868 23.1046 30.1868C22.7563 30.1868 22.408 30.1868 22.021 30.1868C22.021 30.8447 22.021 31.4252 22.021 32.0444C22.2919 32.0444 22.5241 32.0444 22.7563 32.0444C23.2207 32.0444 23.4917 32.3153 23.4917 32.7023C23.4917 33.0893 23.2207 33.3215 22.7563 33.3215C22.4854 33.3215 22.2532 33.3215 22.021 33.3215C22.021 33.9794 22.021 34.56 22.021 35.1792C22.4467 35.1792 22.8724 35.1405 23.2981 35.1792C23.5304 35.2179 23.8012 35.3727 23.9173 35.5662C23.9948 35.721 23.956 36.0306 23.8399 36.1854C23.6851 36.3402 23.4142 36.4563 23.2207 36.4563C22.8337 36.495 22.4467 36.4563 22.0597 36.4563C22.0597 37.1142 22.0597 37.7334 22.0597 38.3913C22.3306 38.3913 22.5628 38.3913 22.795 38.3913C23.2594 38.3913 23.5303 38.6622 23.5303 39.0105C23.5303 39.3975 23.2594 39.6685 22.7563 39.6685C22.5241 39.6685 22.2919 39.6685 22.021 39.6685C22.021 40.3264 22.021 40.9069 22.021 41.4874C22.408 41.4874 22.7563 41.4487 23.1433 41.4874C23.3368 41.4874 23.6465 41.5261 23.7626 41.6809C23.9174 41.8357 23.9561 42.1066 23.9561 42.3388C23.9174 42.6484 23.6464 42.7645 23.3368 42.8032C22.9111 42.8032 22.4854 42.8032 22.0597 42.8032C22.0597 43.4611 22.0597 44.0803 22.0597 44.6996C23.4916 44.8157 24.9623 44.8156 26.4716 44.8156ZM34.9471 12.7327C34.9471 12.8875 34.9471 13.0036 34.9471 13.1197C34.9471 18.1121 34.9471 23.1432 34.9471 28.1356C34.9471 28.2517 34.9471 28.3678 34.9471 28.4839C35.0245 29.5288 35.992 30.2641 37.0369 30.1093C37.9657 29.9545 38.5462 29.2192 38.5462 28.1356C38.5462 23.1045 38.5462 18.1121 38.5462 13.081C38.5462 12.9649 38.5462 12.8488 38.5075 12.7327C37.3465 12.7327 36.1855 12.7327 34.9471 12.7327ZM39.9782 38.1591C39.9782 39.9007 39.9782 41.6035 39.9782 43.3063C41.4875 43.3063 42.9581 43.3063 44.4675 43.3063C45.9768 43.2676 47.0604 42.184 47.0991 40.6747C47.1378 39.3975 46.0155 38.2365 44.5836 38.1978C43.0742 38.1204 41.5262 38.1591 39.9782 38.1591ZM36.766 8.28214C36.2629 9.36577 35.7985 10.372 35.3341 11.3782C36.3016 11.3782 37.2304 11.3782 38.1592 11.3782C37.7335 10.372 37.2691 9.36577 36.766 8.28214Z" fill="white"/>
<path d="M35.373 11.417C35.8375 10.3721 36.3018 9.36584 36.805 8.32092L35.373 11.417Z" fill="white"/>
</svg>
