<svg width="56" height="56" viewBox="0 0 56 56" fill="none" xmlns="http://www.w3.org/2000/svg">
<path d="M34.3276 56H21.6724C9.71389 56 0 46.2861 0 34.3276V21.6724C0 9.71389 9.71389 0 21.6724 0H34.3276C46.2861 0 56 9.71389 56 21.6724V34.3276C56 46.2861 46.2861 56 34.3276 56Z" fill="#E11F1D"/>
<path d="M28.0579 44.622C37.3341 44.622 44.854 37.1022 44.854 27.8259C44.854 18.5497 37.3341 11.0298 28.0579 11.0298C18.7816 11.0298 11.2617 18.5497 11.2617 27.8259C11.2617 37.1022 18.7816 44.622 28.0579 44.622Z" stroke="white" stroke-width="1.2852" stroke-miterlimit="10"/>
<path d="M28.0968 40.868C35.2998 40.868 41.139 35.0289 41.139 27.8259C41.139 20.6229 35.2998 14.7837 28.0968 14.7837C20.8938 14.7837 15.0547 20.6229 15.0547 27.8259C15.0547 35.0289 20.8938 40.868 28.0968 40.868Z" stroke="white" stroke-width="1.2852" stroke-miterlimit="10"/>
<path d="M28.0574 36.4175C32.8024 36.4175 36.6489 32.571 36.6489 27.826C36.6489 23.081 32.8024 19.2344 28.0574 19.2344C23.3124 19.2344 19.4658 23.081 19.4658 27.826C19.4658 32.571 23.3124 36.4175 28.0574 36.4175Z" stroke="white" stroke-width="1.2852" stroke-miterlimit="10"/>
<path d="M28.4443 27.7872L42.454 13.7776" stroke="white" stroke-width="0.642598" stroke-miterlimit="10"/>
<path d="M42.6083 13.6613C42.8018 12.7325 42.7632 11.765 42.5309 10.8362L39.8606 13.5065C40.0928 14.4741 40.0154 15.4803 39.7832 16.4478L42.6083 13.6613Z" fill="white"/>
<path d="M39.8223 16.4092C40.7898 16.177 41.796 16.1383 42.7635 16.3318L45.4339 13.6614C44.4664 13.4679 43.5375 13.4292 42.6087 13.5841L39.8223 16.4092Z" fill="white"/>
<path d="M39.7063 13.6228C39.9385 14.5904 39.8611 15.5966 39.6289 16.5641C40.5964 16.3319 41.6026 16.2932 42.5702 16.4867L42.9185 16.1384C41.951 15.9449 41.0221 15.9062 40.0933 16.061C40.2868 15.1322 40.2481 14.1647 40.0159 13.2358L39.7063 13.6228Z" fill="white"/>
<path d="M40.596 12.7715C40.8282 13.739 40.7508 14.7453 40.5186 15.7128C41.4861 15.4806 42.4923 15.4419 43.4599 15.6354L43.8081 15.2871C42.8406 15.0936 41.9118 15.0548 40.983 15.2096C41.1765 14.2808 41.1378 13.3133 40.9056 12.3845L40.596 12.7715Z" fill="white"/>
<path d="M41.4475 11.92C41.6797 12.8875 41.6023 13.8937 41.3701 14.8613C42.3376 14.6291 43.3438 14.5903 44.3114 14.7838L44.6597 14.4355C43.6922 14.242 42.7633 14.2033 41.8345 14.3581C42.028 13.4293 41.9893 12.4618 41.7571 11.533L41.4475 11.92Z" fill="white"/>
<path d="M42.2991 11.0298C42.5313 11.9973 42.4539 13.0036 42.2217 13.9711C43.1892 13.7389 44.1954 13.7002 45.1629 13.8937L45.5112 13.5454C44.5437 13.3519 43.6149 13.3131 42.6861 13.468C42.8796 12.5391 42.8409 11.5716 42.6087 10.6428L42.2991 11.0298Z" fill="white"/>
<path d="M28.0969 29.0257C28.7168 29.0257 29.2193 28.5232 29.2193 27.9033C29.2193 27.2835 28.7168 26.781 28.0969 26.781C27.4771 26.781 26.9746 27.2835 26.9746 27.9033C26.9746 28.5232 27.4771 29.0257 28.0969 29.0257Z" fill="white"/>
</svg>
