<svg width="58" height="59" viewBox="0 0 58 59" fill="none" xmlns="http://www.w3.org/2000/svg">
<path d="M53.3118 20.5489L37.9512 5.18821C33.0336 0.270597 25.0217 0.270597 20.0488 5.18821L4.68821 20.5489C-0.229403 25.4665 -0.229403 33.4783 4.68821 38.4512L20.0488 53.8118C24.9664 58.7294 32.9783 58.7294 37.9512 53.8118L53.3118 38.4512C58.2294 33.4783 58.2294 25.4665 53.3118 20.5489Z" fill="white" stroke="#E11F1D" stroke-width="1.30837" stroke-miterlimit="10"/>
<path d="M42.2059 21.1566C41.7639 22.4827 41.3218 23.864 40.8798 25.1901C40.4377 26.461 39.9957 27.6766 39.5537 28.9474C39.3326 29.5552 39.1669 30.1078 38.9459 30.7155C38.8906 30.8261 38.8354 30.9918 38.7801 31.1023C38.5039 31.5996 38.1171 31.7654 37.6198 31.8206C37.3988 31.8206 37.233 31.8206 37.012 31.8206C32.3154 31.8206 27.5636 31.8206 22.867 31.8206C22.8117 31.8206 22.7012 31.8206 22.5907 31.8206C22.6459 32.1522 22.6459 32.4837 22.7012 32.76C22.7012 32.8705 22.7564 32.981 22.7564 33.0915C22.7564 33.3125 22.9222 33.4783 23.1432 33.5335C23.2537 33.5888 23.4195 33.5888 23.53 33.5888C28.6686 33.5888 33.8625 33.5888 39.0011 33.5888C39.0564 33.5888 39.1669 33.5888 39.2222 33.5888C39.2222 34.9701 39.2222 36.3515 39.2222 37.7881C39.1669 37.7881 39.1116 37.7881 39.0564 37.7881C33.4205 37.7881 27.7846 37.7881 22.2039 37.7881C21.4303 37.7881 20.8226 37.4566 20.27 37.0145C19.3307 36.1857 18.7781 35.1911 18.5571 33.9755C18.1703 31.9864 17.7283 29.9972 17.2863 28.0634C16.7337 25.5769 16.2365 23.0905 15.6839 20.6593C15.6839 20.604 15.6287 20.5488 15.5734 20.5488C14.6341 20.5488 13.6948 20.5488 12.7002 20.5488C12.7002 19.1675 12.7002 17.7308 12.7002 16.3495C14.9104 16.3495 17.1205 16.3495 19.3307 16.3495C19.3859 16.7363 19.4412 17.0678 19.5517 17.4546C19.6622 18.0624 19.7727 18.6702 19.8832 19.3332C19.9385 19.3332 20.049 19.3332 20.1043 19.3332C26.7347 19.3332 33.3652 19.3332 39.9404 19.3332C39.9957 19.3332 40.1062 19.3332 40.1615 19.3332C40.8245 19.3885 41.4323 19.6095 41.8191 20.162C41.9849 20.383 42.0401 20.7146 42.1506 20.9908C42.2059 20.8803 42.2059 20.9908 42.2059 21.1566ZM21.0435 30.605C21.1541 30.605 21.2093 30.605 21.2646 30.605C26.5137 30.605 31.7629 30.605 37.012 30.605C37.1225 30.605 37.233 30.605 37.2883 30.605C37.5645 30.605 37.7303 30.4945 37.7856 30.2183C37.9513 29.721 38.1171 29.1684 38.3381 28.6711C38.9459 26.903 39.5537 25.1349 40.1615 23.3668C40.4377 22.6485 40.6587 21.9302 40.935 21.1566C41.0455 20.8251 40.935 20.6041 40.5483 20.4935C40.272 20.4383 39.9957 20.383 39.7195 20.383C36.9567 20.383 34.194 20.383 31.4313 20.383C27.3425 20.383 23.1985 20.383 19.1097 20.383C18.9991 20.383 18.8887 20.383 18.7229 20.383C18.5019 19.3885 18.3361 18.3939 18.1704 17.4546C16.7338 17.4546 15.2971 17.4546 13.8605 17.4546C13.8605 18.0071 13.8605 18.6149 13.8605 19.1675C13.9158 19.1675 13.9711 19.1675 14.0263 19.1675C14.8551 19.1675 15.6839 19.1675 16.5127 19.1675C16.6232 19.1675 16.6785 19.1675 16.7337 19.3332C17.1205 21.1566 17.452 22.98 17.8388 24.8034C18.3361 27.124 18.7782 29.4447 19.2754 31.7654C19.4412 32.7047 19.6622 33.5888 19.8832 34.4728C20.049 35.0254 20.3252 35.5779 20.7673 35.9647C21.2646 36.4067 21.8724 36.5172 22.5354 36.5172C27.6188 36.5172 32.7022 36.5172 37.7856 36.5172C37.8408 36.5172 37.8961 36.5172 37.9513 36.5172C37.9513 35.9094 37.9513 35.3569 37.9513 34.8044C37.8961 34.8044 37.8408 34.8044 37.7856 34.8044C32.7022 34.8044 27.6188 34.8044 22.5907 34.8044C22.5354 34.8044 22.4249 34.8044 22.3697 34.8044C22.0381 34.8044 21.8171 34.6386 21.7066 34.3071C21.6513 34.1966 21.5961 34.0308 21.5961 33.9203C21.4856 33.3125 21.3751 32.7047 21.3198 32.0969C21.2093 31.5996 21.1541 31.1023 21.0435 30.605Z" fill="#333333"/>
<path d="M22.8111 45.4131C22.5901 45.3579 22.3691 45.3579 22.1481 45.2474C20.9877 44.8606 20.2142 44.0318 20.0484 42.7609C19.6616 40.4403 21.9823 38.6169 24.1372 39.4457C25.4633 39.943 26.2369 41.2138 26.1264 42.6504C26.0159 43.9765 24.966 45.1369 23.6399 45.3579C23.5294 45.3579 23.4189 45.4131 23.3637 45.4131C23.1979 45.4131 23.0321 45.4131 22.8111 45.4131ZM23.0874 44.1423C24.082 44.1423 24.966 43.3135 24.966 42.3189C24.966 41.3243 24.1372 40.4403 23.0874 40.4403C22.0928 40.4403 21.264 41.2691 21.264 42.2637C21.264 43.3687 22.0928 44.1423 23.0874 44.1423Z" fill="#333333"/>
<path d="M34.4146 45.4132C34.1384 45.3579 33.8621 45.3027 33.5858 45.1922C32.4807 44.7501 31.7072 43.7003 31.6519 42.54C31.5414 41.0481 32.4255 39.943 33.4753 39.501C35.2434 38.7274 37.3431 39.8325 37.6746 41.7112C38.0062 43.3688 36.9563 44.9159 35.354 45.3027C35.2435 45.3579 35.0777 45.3579 34.9672 45.3579C34.8014 45.4132 34.5804 45.4132 34.4146 45.4132ZM34.6357 40.4956C33.6411 40.4956 32.8123 41.3244 32.8123 42.3189C32.8123 43.3135 33.6411 44.1976 34.7462 44.1423C35.7408 44.0871 36.5143 43.2583 36.5143 42.2637C36.5143 41.2691 35.6855 40.4956 34.6357 40.4956Z" fill="#333333"/>
<path d="M33.2544 22.0959C33.5859 22.4275 33.8622 22.7037 34.1385 22.98C32.0941 25.0244 30.1049 27.0135 28.0605 29.0579C26.9002 27.8976 25.7951 26.7373 24.6348 25.6322C24.911 25.3559 25.1873 25.0796 25.4636 24.8034C26.2924 25.6322 27.1765 26.5163 28.0605 27.4003C29.7734 25.5769 31.4863 23.8641 33.2544 22.0959Z" fill="#333333"/>
</svg>
