<svg width="57" height="58" viewBox="0 0 57 58" fill="none" xmlns="http://www.w3.org/2000/svg">
<path d="M52.4818 20.0488L37.3489 4.68821C32.5042 -0.229403 24.6112 -0.229403 19.712 4.68821L4.63353 20.0488C-0.211177 24.9664 -0.211177 32.9783 4.63353 37.9512L19.7664 53.3118C24.6111 58.2294 32.5042 58.2294 37.4034 53.3118L52.5363 37.9512C57.3266 33.0336 57.3266 25.0217 52.4818 20.0488Z" fill="white" stroke="#E11F1D" stroke-width="1.30837" stroke-miterlimit="10"/>
<ellipse cx="49.256" cy="15.5" rx="7.38881" ry="7.5" fill="white"/>
<path d="M16.7725 39.3876C17.1535 38.2273 18.0245 37.5642 19.1132 37.1222C20.7462 36.5144 22.3248 35.7409 23.9579 35.0778C24.9377 34.6358 24.9377 34.6358 24.9377 33.5307C24.9377 33.3097 24.9377 33.0886 24.9377 32.9229C24.2845 32.4256 23.6313 32.0388 23.0325 31.5415C22.4337 31.0442 22.216 30.2707 22.0527 29.4972C21.7805 29.4972 21.5627 29.4419 21.2906 29.4419C20.3107 29.3314 19.712 28.7788 19.5486 27.7843C19.5486 27.729 19.5486 27.729 19.5486 27.6737C19.6031 26.4029 19.1132 25.2426 18.9499 24.027C18.4599 19.7172 19.9297 16.2362 23.5224 13.8602C23.9035 13.584 24.1756 13.363 24.2845 12.8104C24.4478 11.6501 25.2099 10.8765 26.1353 10.2687C28.0405 9.05312 30.7078 9.21891 32.4497 10.6003C33.1574 11.2081 33.7017 11.8711 33.8106 12.8657C33.865 13.3077 34.0828 13.5287 34.4638 13.7497C36.9134 15.2969 38.492 17.507 39.0364 20.3802C39.363 22.0931 39.2541 23.806 38.8186 25.4636C38.7097 25.9056 38.6009 26.4029 38.6009 26.9002C38.5464 28.6683 38.0565 29.2761 36.3146 29.4419C36.2057 29.4419 36.1513 29.4971 35.988 29.5524C35.7703 31.2653 34.5183 32.1494 33.1574 32.8124C32.9396 34.9673 33.2118 34.691 34.4638 35.2436C36.0969 35.9066 37.6755 36.6802 39.3085 37.288C40.615 37.7853 41.3226 38.9456 41.2682 40.2717C41.2137 41.4873 41.2137 42.7029 41.2682 43.9185C41.3226 45.0235 40.4517 46.1286 39.0908 46.1286C32.3953 46.0734 25.6998 46.1286 19.0043 46.1286C17.9156 46.1286 17.2624 45.5761 16.7725 44.6368C16.7725 42.8686 16.7725 41.1005 16.7725 39.3876ZM37.7299 24.3033C38.6009 21.3195 37.3489 17.1755 33.9739 14.9653C30.5445 12.7551 25.972 13.1419 22.9781 15.9046C20.6374 18.0595 19.3853 22.2036 20.474 24.3585C20.6918 24.3032 20.8551 24.248 21.0728 24.1375C21.2361 24.0823 21.4539 24.027 21.6172 23.9718C21.6716 22.6457 21.6716 22.7009 22.9236 22.6456C24.1212 22.5904 25.3732 22.4799 26.5707 22.2589C29.5102 21.7063 32.1231 20.4907 34.1916 18.2253C34.2461 18.1701 34.3005 18.0595 34.355 18.0043C34.6816 17.728 34.9537 17.6728 35.2259 17.949C35.4981 18.2253 35.4981 18.5568 35.2803 18.8331C34.8993 19.2199 34.5727 19.6619 34.1916 19.9935C32.0142 21.9273 29.4558 23.0324 26.6252 23.5297C25.4821 23.7507 24.2845 23.8612 23.0325 23.9718C23.1958 25.8504 23.3591 27.6738 23.5768 29.5524C23.6313 30.1602 24.0123 30.6575 24.5567 30.989C25.7542 31.652 26.9518 32.3151 28.1494 33.0334C28.9115 33.4754 29.6191 33.3649 30.3268 32.9782C31.4155 32.3704 32.5042 31.7626 33.5929 31.0995C33.7562 30.989 33.9739 30.8232 34.1916 30.6575C34.0828 30.6575 33.9739 30.6022 33.9739 30.6022C32.8308 31.1548 31.5788 31.3205 30.3268 31.4311C30.0002 31.4863 29.6191 31.4863 29.2381 31.4863C28.8026 31.4863 28.5304 31.1548 28.5304 30.8232C28.5848 30.4365 28.8026 30.2707 29.1836 30.2155C29.2925 30.2155 29.4014 30.2155 29.5647 30.2155C30.4356 30.1049 31.361 30.0497 32.232 29.8287C33.0485 29.6077 33.7562 29.2209 34.5183 28.8341C34.736 28.7236 34.9537 28.4473 34.9537 28.2263C35.117 26.7897 35.2259 25.3531 35.3348 23.9165C35.3892 23.585 35.2803 23.364 35.0082 23.1429C34.736 22.8667 34.4638 22.5904 34.1916 22.3141C33.9739 22.0379 33.9739 21.6511 34.2461 21.43C34.5183 21.209 34.8449 21.209 35.0626 21.43C35.7158 22.2036 36.859 22.6457 36.6412 23.9718C36.9134 24.0823 37.2944 24.1928 37.7299 24.3033ZM38.9819 38.5036C37.5666 37.8958 36.3146 37.3432 34.9537 36.7907C33.5384 38.5035 31.8509 39.8296 29.6735 40.3822C29.6735 40.769 29.6735 41.1005 29.6735 41.432C29.6735 41.8188 29.6735 42.1503 29.6735 42.5371C29.6191 42.9791 29.4014 43.2001 29.0748 43.1449C28.6937 43.1449 28.476 42.9239 28.4216 42.5371C28.4216 42.3161 28.4216 42.0951 28.4216 41.9293C28.4216 41.432 28.4216 40.9347 28.4216 40.3822C26.1897 39.8296 24.5567 38.5035 23.1414 36.7907C21.7805 37.3432 20.5285 37.8958 19.1676 38.5036C19.8208 39.0561 20.3652 39.4981 20.964 39.9402C21.8349 40.6585 22.3248 41.5425 22.216 42.7029C22.1615 43.3659 22.216 44.0842 22.216 44.7473C26.8429 44.7473 31.4155 44.7473 35.988 44.7473C35.988 44.029 35.988 43.3659 35.988 42.7029C35.9336 41.5425 36.369 40.6585 37.2944 39.9402C37.7844 39.5534 38.3287 39.0561 38.9819 38.5036ZM24.3389 36.2934C25.5365 37.6748 26.8429 38.6693 28.5304 39.1113C28.857 39.2219 29.2381 39.1666 29.5647 39.1113C31.2522 38.6693 32.5586 37.6748 33.7562 36.2934C32.3409 35.9066 31.7421 35.0225 31.7965 33.5859C30.8711 34.1385 30.0546 34.6358 29.0748 34.691C28.0405 34.691 27.224 34.0832 26.2986 33.6412C26.4074 35.0778 25.6454 35.8514 24.3389 36.2934ZM18.2966 39.4981C18.2422 39.5534 18.1333 39.5534 18.0789 39.6086C18.0789 41.1005 18.0789 42.5371 18.0789 44.029C18.0789 44.4158 18.2966 44.7473 18.6777 44.8025C19.3853 44.8578 20.1474 44.8025 20.9095 44.8025C20.9095 43.9184 20.964 43.1449 20.9095 42.3161C20.9095 41.9846 20.8006 41.5978 20.5829 41.432C19.8208 40.769 19.0587 40.1059 18.2966 39.4981ZM40.0162 39.5534C39.9618 39.4981 39.8529 39.4981 39.7984 39.4429C39.0364 40.0507 38.2743 40.7137 37.5666 41.3215C37.4033 41.4873 37.24 41.7083 37.24 41.9293C37.1856 42.8686 37.24 43.7527 37.24 44.7473C37.8388 44.7473 38.3831 44.7473 38.9275 44.7473C39.0364 44.7473 39.1452 44.7473 39.3085 44.7473C39.7985 44.692 40.0706 44.5263 40.0706 44.029C40.0162 42.5924 40.0162 41.1005 40.0162 39.5534ZM25.5365 12.8104C27.9316 12.0921 30.1635 12.0921 32.5586 12.8104C31.7965 11.2633 30.5445 10.766 29.1292 10.7108C27.6595 10.7108 26.353 11.2081 25.5365 12.8104ZM21.9982 28.171C21.8893 27.1765 21.8349 26.2371 21.726 25.2978C20.9095 25.5188 20.8007 25.6294 20.7462 26.2372C20.7462 26.5134 20.7462 26.8449 20.7462 27.1212C20.8007 27.95 20.964 28.1158 21.9982 28.171ZM36.0969 28.171C37.1311 28.1158 37.2944 27.95 37.3489 27.1212C37.3489 26.7344 37.4033 26.4029 37.3489 26.0161C37.2944 25.5188 37.0767 25.3531 36.369 25.3531C36.2602 26.2924 36.1513 27.1765 36.0969 28.171Z" fill="#333333"/>
<path d="M57 16.6783C56.8911 17.0651 56.7823 17.4519 56.6734 17.8939C55.6391 21.2091 53.4617 23.143 50.1412 23.8061C49.2702 23.9718 48.3448 23.9718 47.4739 23.8061C46.9295 23.6956 46.5485 23.8061 46.0586 24.0271C45.0787 24.4691 44.0989 24.8006 43.0647 25.1874C42.738 25.2979 42.4114 25.2979 42.0848 25.2979C41.8671 25.2979 41.5949 25.1322 41.5405 24.9664C41.486 24.7454 41.5405 24.4139 41.6493 24.2481C41.976 23.8061 42.4114 23.364 42.738 22.922C42.9558 22.6457 43.1735 22.3142 43.4457 21.9274C43.2824 21.7064 43.1191 21.5406 42.9013 21.3196C40.7239 18.8332 40.0707 15.96 41.2139 12.8105C42.3026 9.71629 44.6433 7.8929 47.8549 7.45087C52.6452 6.84307 56.2923 10.4346 56.8367 14.2471C56.8367 14.4129 56.9456 14.5234 57 14.6339C57 15.3522 57 16.0153 57 16.6783ZM43.99 23.4746C44.0445 23.5298 44.0445 23.5298 44.0989 23.5851C44.5888 23.364 45.1332 23.1983 45.5687 22.8668C46.2219 22.3695 46.8751 22.3142 47.6372 22.5352C51.121 23.364 55.6391 20.7671 55.748 15.8495C55.8569 11.8159 52.4819 8.6112 48.6714 8.72171C45.0787 8.77696 41.1594 12.2027 42.1393 17.1203C42.4659 18.7227 43.2824 19.9936 44.48 21.0986C45.0243 21.5959 45.0787 21.7617 44.6977 22.4247C44.4255 22.701 44.2078 23.0878 43.99 23.4746Z" fill="#333333"/>
<path d="M31.6877 24.7453C32.3409 24.8006 33.0486 24.9663 33.4296 25.6294C33.6474 26.0162 33.6474 26.4029 33.3752 26.624C33.0486 26.845 32.7764 26.7345 32.5042 26.5134C31.851 25.9056 31.5788 25.9056 30.9256 26.5134C30.6534 26.7897 30.3813 26.845 30.0547 26.624C29.7825 26.4029 29.7281 26.0162 30.0002 25.6294C30.3813 24.9663 31.0345 24.8006 31.6877 24.7453Z" fill="#333333"/>
<path d="M28.258 25.9057C28.258 26.5687 27.7681 26.845 27.3326 26.5687C27.2237 26.5134 27.1693 26.4029 27.0604 26.2924C26.5161 25.7951 26.135 25.7951 25.5907 26.2924C25.5362 26.3477 25.4818 26.4582 25.4274 26.4582C25.2096 26.4582 24.883 26.5687 24.7197 26.4582C24.5564 26.3477 24.502 25.9609 24.502 25.7399C24.5564 25.5189 24.7197 25.2979 24.883 25.1874C25.6451 24.5243 27.006 24.5243 27.768 25.1874C28.0402 25.4636 28.1491 25.7952 28.258 25.9057Z" fill="#333333"/>
<path d="M49.4879 15.0206C49.4879 16.2362 49.4879 17.4517 49.4879 18.6673C49.4879 18.9436 49.488 19.1646 49.8146 19.3304C49.9779 19.3856 50.0867 19.7724 50.0867 19.9934C50.0867 20.325 49.7601 20.4907 49.4335 20.4907C49.0525 20.4907 48.7259 20.4907 48.3448 20.4907C47.9638 20.4907 47.6372 20.3802 47.5283 19.9382C47.4194 19.5514 47.6916 19.3304 48.0182 19.2199C48.0726 19.2199 48.1271 19.1646 48.1815 19.0541C48.1815 17.8385 48.1815 16.6229 48.1815 15.4074C48.1815 15.1311 48.0726 15.0206 47.8549 14.8548C47.6916 14.7443 47.5283 14.4128 47.5283 14.1918C47.5283 13.8602 47.8549 13.6945 48.1815 13.6945C48.5626 13.6945 48.9436 13.6945 49.3246 13.6945C49.6513 13.6945 49.9779 13.805 50.0867 14.1918C50.1412 14.5233 49.9779 14.7443 49.7057 14.9101C49.6512 14.9101 49.5968 14.9653 49.4879 15.0206Z" fill="#333333"/>
<path d="M48.8886 10.8766C49.2152 10.8766 49.4873 11.2081 49.4873 11.5396C49.4873 11.8159 49.1607 12.1474 48.8341 12.1474C48.5075 12.1474 48.2354 11.8159 48.2354 11.4844C48.2354 11.1528 48.562 10.8766 48.8886 10.8766Z" fill="#333333"/>
</svg>
