<svg width="58" height="58" viewBox="0 0 58 58" fill="none" xmlns="http://www.w3.org/2000/svg">
<path d="M53.3118 19.9936L37.9512 4.68821C33.0336 -0.229403 25.0217 -0.229403 20.0488 4.68821L4.68821 20.0488C-0.229403 24.9664 -0.229403 32.9783 4.68821 37.9512L20.0488 53.3118C24.9665 58.2294 32.9783 58.2294 37.9512 53.3118L53.3118 37.9512C58.2294 32.9783 58.2294 24.9665 53.3118 19.9936Z" fill="white" stroke="#E11F1D" stroke-width="1.30837" stroke-miterlimit="10"/>
<path d="M45.6318 28.2265C45.6318 28.7238 45.6318 29.2211 45.6318 29.7184C45.6318 29.7737 45.6318 29.8842 45.5765 29.9394C45.5213 30.6025 45.466 31.2103 45.3555 31.8181C44.8029 34.9123 43.5321 37.6197 41.4325 39.9404C38.4487 43.2557 34.7467 45.0791 30.2711 45.4106C28.3925 45.5763 26.5138 45.3553 24.6905 44.858C20.8779 43.8082 17.839 41.6533 15.5735 38.4486C13.2529 35.1886 12.3135 31.5418 12.5898 27.5082C12.7003 25.9059 13.0871 24.3035 13.6949 22.8117C15.1868 19.1649 17.6732 16.3469 21.1542 14.413C23.0881 13.3632 25.1325 12.7001 27.2874 12.4791C27.6189 12.4239 28.0057 12.4239 28.3372 12.3687C28.8345 12.3687 29.3318 12.3687 29.8291 12.3687C29.8843 12.3687 29.9949 12.3686 30.0501 12.4239C30.9342 12.4791 31.8182 12.5896 32.647 12.7554C36.7911 13.6947 40.0511 15.9049 42.5375 19.3307C44.2504 21.6513 45.1897 24.3035 45.5212 27.1767C45.5765 27.5635 45.5765 27.895 45.6318 28.2265ZM27.0111 39.2774C31.8182 34.4703 36.6253 29.6632 41.4325 24.8561C41.3772 24.8561 41.3772 24.8008 41.3219 24.8008C39.388 24.1378 37.3989 23.4747 35.465 22.8669C35.2992 22.8117 35.244 22.8669 35.1335 22.9222C32.4813 25.5744 29.8291 28.2266 27.1769 30.8788C27.1216 30.934 27.1216 30.9893 27.0664 31.0998C27.0111 30.9893 26.9559 30.934 26.9006 30.8788C25.6298 29.6079 24.3037 28.2818 23.0328 27.011C22.9223 26.9005 22.8671 26.9005 22.7566 26.9557C20.8227 27.6188 18.8888 28.2818 16.8996 28.8896C16.8444 28.8896 16.7891 28.9449 16.7339 28.9449C20.1596 32.4259 23.6406 35.8516 27.0111 39.2774Z" stroke="#333333" stroke-width="0.965303" stroke-miterlimit="10"/>
<path d="M28.3369 12.4793C28.0054 12.5346 27.6186 12.5346 27.2871 12.5898C25.1322 12.8108 23.0325 13.4739 21.1539 14.5237C17.6729 16.4576 15.1864 19.2203 13.6946 22.9223C13.0868 24.4142 12.7 26.0166 12.5895 27.6189C12.258 31.5972 13.2526 35.2992 15.5732 38.5592C17.8386 41.764 20.8776 43.9189 24.6901 44.9687C26.5135 45.466 28.3922 45.687 30.2708 45.5213C34.6911 45.1898 38.4484 43.3111 41.4321 40.0511C43.5318 37.7304 44.8579 35.023 45.3552 31.9288C45.4657 31.321 45.5209 30.6579 45.5762 30.0501C45.5762 29.9949 45.5762 29.8844 45.6314 29.8291" stroke="#333333" stroke-width="1.2" stroke-miterlimit="10"/>
<path d="M45.6318 28.2265C45.5765 27.895 45.5765 27.5634 45.5213 27.2319C45.1897 24.3587 44.2504 21.7618 42.5375 19.3858C40.0511 15.9601 36.7359 13.8052 32.6471 12.8106C31.8182 12.5896 30.9342 12.4791 30.0501 12.4791C29.9949 12.4791 29.8844 12.4791 29.8291 12.4238" stroke="#333333" stroke-width="1.2" stroke-miterlimit="10"/>
<path d="M27.0107 39.2773C23.5849 35.8515 20.1592 32.4258 16.7334 29.0001C16.7887 29.0001 16.8439 28.9448 16.8992 28.9448C18.8331 28.2818 20.8222 27.674 22.7561 27.0109C22.8666 26.9557 22.9219 26.9556 23.0324 27.0662C24.3032 28.337 25.6293 29.6631 26.9001 30.9339C26.9554 30.9892 26.9554 31.0445 27.0659 31.155C27.1212 31.0445 27.1764 30.9892 27.1764 30.9339C29.8286 28.2817 32.4808 25.6295 35.133 22.9773C35.2435 22.8668 35.2988 22.8668 35.4645 22.9221C37.3984 23.5852 39.3876 24.2482 41.3215 24.856C41.3767 24.856 41.3767 24.9112 41.432 24.9112C36.6249 29.6631 31.8178 34.4702 27.0107 39.2773Z" stroke="#333333" stroke-width="1.2" stroke-miterlimit="10"/>
</svg>
