<svg width="58" height="58" viewBox="0 0 58 58" fill="none" xmlns="http://www.w3.org/2000/svg">
<path d="M53.3118 20.0489L37.9511 4.68821C33.0335 -0.229403 25.0217 -0.229403 20.0488 4.68821L4.68821 20.0489C-0.229403 24.9665 -0.229403 32.9783 4.68821 37.9512L20.0488 53.3118C24.9664 58.2294 32.9783 58.2294 37.9511 53.3118L53.3118 37.9512C58.2294 32.9783 58.2294 24.9665 53.3118 20.0489Z" fill="white" stroke="#E11F1D" stroke-width="1.30837" stroke-miterlimit="10"/>
<path d="M16.5125 44.2499C16.2915 44.1947 16.0152 44.1394 15.8494 44.0289C15.2417 43.6974 14.9102 43.0896 14.9102 42.3713C14.9102 40.8794 14.9102 39.3323 14.9102 37.8404C14.9102 35.4093 14.9102 33.0334 14.9102 30.6022C14.9102 29.8286 15.2969 29.1656 16.0152 28.8893C16.4573 28.7236 16.844 28.7235 17.286 28.834C18.8884 29.1103 20.4355 29.3313 22.0379 29.6076C22.2589 29.6629 22.48 29.6629 22.701 29.7181C23.3088 29.8286 23.806 30.1049 24.1928 30.5469C24.2481 30.6022 24.2481 30.6022 24.3033 30.6574C24.7454 30.3811 25.1874 30.1049 25.6294 29.7734C25.6846 29.7181 25.7399 29.7181 25.7399 29.6629C26.845 27.7842 28.0054 25.9056 29.0552 23.9164C29.3315 23.4192 29.4972 22.8666 29.4419 22.2588C29.3867 21.651 29.3867 21.0432 29.3867 20.4907C29.3867 19.9381 29.4419 19.3856 29.7182 18.8883C30.3813 17.7832 31.9836 17.0649 33.5308 18.2805C34.0833 18.7226 34.4148 19.3856 34.6358 20.0487C34.9674 20.9327 35.0779 21.8168 35.1884 22.7561C35.2989 23.4744 35.1331 24.1927 34.9673 24.8557C34.7463 25.8503 34.4701 26.8449 34.2491 27.8395C34.2491 27.8947 34.249 27.95 34.1938 28.0052C34.249 28.0052 34.3595 28.0052 34.4148 28.0052C36.4592 28.0052 38.5589 28.0052 40.6033 28.0052C40.9901 28.0052 41.3769 28.0605 41.7084 28.171C42.6477 28.5578 43.1449 29.4418 42.9792 30.4917C42.8687 31.2652 42.6477 31.7073 41.9847 32.1493C42.5372 32.7018 42.8134 33.3096 42.5924 34.0832C42.4267 34.8015 41.9294 35.354 41.3216 35.6856C42.3161 37.0117 41.7636 38.7798 40.2717 39.3323C40.2717 39.3876 40.327 39.3876 40.327 39.4428C40.8243 40.2164 40.8795 40.9899 40.4375 41.8187C39.9955 42.6476 39.2772 43.0343 38.3931 43.0343C34.8016 43.0343 31.1548 43.0343 27.5633 43.0343C27.3423 43.0343 27.1213 42.9238 26.9003 42.8133C26.624 42.6476 26.3477 42.4818 26.0715 42.316C25.7952 42.1503 25.5189 42.0398 25.1874 42.0398C24.9664 42.0398 24.8006 42.0398 24.5796 42.0398C24.5244 42.0398 24.4691 42.095 24.4138 42.1503C23.9718 42.8686 23.3088 43.3106 22.4247 43.4211C20.9881 43.5869 19.5515 43.8079 18.0596 44.0289C17.6728 44.0842 17.3413 44.1394 16.9545 44.1947C16.8993 44.1947 16.8993 44.1947 16.844 44.2499C16.844 44.2499 16.6782 44.2499 16.5125 44.2499ZM24.8559 41.1005C24.9111 41.1005 24.9111 41.1005 24.9111 41.1005C24.9664 41.1005 24.9664 41.1005 25.0216 41.1005C25.6294 40.9899 26.1819 41.1557 26.6792 41.4872C26.9555 41.653 27.2318 41.8187 27.508 41.9845C27.6186 42.0398 27.729 42.095 27.8396 42.095C29.7182 42.095 31.5416 42.095 33.4203 42.095C35.1331 42.095 36.846 42.095 38.5036 42.095C39.1114 42.095 39.6639 41.5977 39.7192 40.9899C39.7744 40.3269 39.3877 39.7743 38.7246 39.6086C38.5589 39.5533 38.3379 39.5533 38.1169 39.5533C37.7853 39.5533 37.4538 39.5533 37.067 39.5533C36.7355 39.5533 36.5145 39.3323 36.5145 39.0008C36.5145 38.7245 36.7355 38.4482 37.067 38.5035C37.8406 38.5035 38.6694 38.5035 39.4429 38.5588C40.106 38.5588 40.6585 38.1167 40.769 37.4537C40.8795 36.7906 40.4375 36.1829 39.8297 36.0723C39.4982 36.0171 39.1667 35.9618 38.8351 35.9618C38.3378 35.9618 37.8958 35.9618 37.3985 35.9618C37.0118 35.9618 36.7908 35.7408 36.7908 35.4093C36.7908 35.0778 37.0118 34.912 37.3985 34.912C38.5036 34.912 39.6087 34.912 40.7138 34.912C40.8243 34.912 40.9348 34.8567 40.9901 34.8567C41.3216 34.691 41.5426 34.4147 41.5978 34.0832C41.7083 33.7517 41.6531 33.4754 41.3768 33.1991C40.99 32.8123 40.548 32.5913 39.9955 32.5913C39.1114 32.5913 38.2274 32.5913 37.3433 32.5913C36.9565 32.5913 36.7355 32.3151 36.7908 31.9835C36.846 31.7073 37.067 31.5415 37.3433 31.5415C38.5589 31.5415 39.7192 31.5415 40.9348 31.5415C41.4321 31.5415 41.8188 31.2652 41.9293 30.7679C41.9846 30.6022 41.9847 30.3812 41.9847 30.1602C41.9294 29.7734 41.7083 29.4419 41.3216 29.3313C41.1005 29.2761 40.8796 29.2208 40.6585 29.2208C39.6087 29.2208 38.5588 29.2208 37.509 29.2208C36.1829 29.2208 34.8568 29.2208 33.5308 29.2208C33.0335 29.2208 32.8124 28.834 33.0335 28.392C33.0887 28.2815 33.144 28.1157 33.1992 28.0052C33.4755 26.9001 33.7518 25.7951 34.0281 24.69C34.1386 24.248 34.249 23.7507 34.1938 23.3086C34.1385 22.4246 33.9728 21.5405 33.6965 20.7117C33.5308 20.2144 33.3098 19.6619 32.8677 19.3303C32.481 18.9988 31.9836 18.7778 31.4311 18.9988C30.8785 19.1646 30.547 19.5514 30.4365 20.1591C30.3813 20.3802 30.3813 20.5459 30.3813 20.767C30.3813 21.43 30.3813 22.1483 30.4365 22.8114C30.4365 23.2534 30.3813 23.6954 30.1603 24.1374C29.7182 25.2425 29.1104 26.2371 28.5026 27.2317C27.8948 28.2815 27.287 29.2761 26.6792 30.3259C26.5135 30.6022 26.3477 30.8232 26.0715 30.989C25.6847 31.21 25.2979 31.4862 24.9664 31.7073C24.8559 31.7625 24.8006 31.873 24.8006 31.9835C24.8006 32.1493 24.8559 32.3151 24.8559 32.5361C24.8559 35.354 24.8559 38.2273 24.8559 41.0452C24.8559 40.9347 24.8559 40.9899 24.8559 41.1005ZM20.104 32.6466C20.104 32.3703 20.104 32.1493 20.104 31.873C20.104 31.5415 19.883 31.3205 19.5514 31.3205C19.2199 31.3205 19.0542 31.5415 19.0542 31.873C19.0542 32.3703 19.0542 32.8676 19.0542 33.3649C19.0542 33.6964 19.2752 33.9174 19.6068 33.9174C19.9383 33.9174 20.1593 33.6964 20.1593 33.3649C20.104 33.1439 20.104 32.9229 20.104 32.6466ZM19.5514 35.0225C19.2752 35.0225 18.9989 35.2435 18.9989 35.5198C18.9989 35.7961 19.2199 36.0723 19.5514 36.0723C19.8277 36.0723 20.104 35.8513 20.104 35.575C20.104 35.2988 19.8277 35.0225 19.5514 35.0225Z" fill="black"/>
<path d="M45.0792 26.1819C44.5819 26.1819 44.0846 26.1819 43.5873 26.1819C43.2557 26.1819 43.0347 25.9608 42.9795 25.6293C42.9795 25.2978 43.2005 25.0768 43.532 25.0768C44.5266 25.0768 45.5212 25.0768 46.5158 25.0768C46.8473 25.0768 47.0683 25.2978 47.0683 25.6293C47.0683 25.9056 46.8473 26.1266 46.5158 26.1819C46.0737 26.1819 45.5765 26.1819 45.0792 26.1819Z" fill="black"/>
<path d="M32.2047 12.3132C32.2047 12.8105 32.2047 13.3078 32.2047 13.805C32.2047 14.1366 31.9837 14.3576 31.6522 14.4129C31.3206 14.4129 31.0996 14.1918 31.0996 13.805C31.0996 12.8105 31.0996 11.8712 31.0996 10.8766C31.0996 10.5451 31.3206 10.2688 31.6522 10.2688C31.9837 10.2688 32.2047 10.4898 32.2047 10.8766C32.2047 11.3186 32.2047 11.8159 32.2047 12.3132Z" fill="black"/>
<path d="M18.336 26.1819C17.8387 26.1819 17.3415 26.1819 16.8442 26.1819C16.5127 26.1819 16.2916 25.9608 16.2363 25.6293C16.2363 25.2978 16.4574 25.0768 16.8442 25.0768C17.8388 25.0768 18.778 25.0768 19.7726 25.0768C20.1041 25.0768 20.3804 25.2978 20.3804 25.6293C20.3804 25.9608 20.1594 26.1819 19.7726 26.1819C19.2753 26.1819 18.8333 26.1819 18.336 26.1819Z" fill="black"/>
<path d="M40.0509 17.8385C39.8299 17.8385 39.6641 17.728 39.5536 17.507C39.4431 17.2859 39.4983 17.0649 39.6641 16.8992C39.9956 16.5677 40.3272 16.2361 40.6587 15.9046C41.0455 15.5178 41.377 15.1863 41.7638 14.7995C42.04 14.5233 42.3163 14.5232 42.5373 14.7443C42.7583 14.9653 42.7583 15.2968 42.482 15.5178C41.819 16.1809 41.1007 16.8992 40.4376 17.5622C40.3824 17.728 40.2167 17.8385 40.0509 17.8385Z" fill="black"/>
<path d="M23.8615 17.286C23.8615 17.507 23.751 17.6727 23.53 17.7832C23.309 17.8937 23.1432 17.8385 22.9774 17.6727C22.7564 17.4517 22.4801 17.1754 22.2591 16.9544C21.8171 16.5124 21.3198 16.0151 20.8778 15.5178C20.6015 15.2416 20.6015 14.9653 20.8225 14.7443C21.0435 14.5232 21.3751 14.5233 21.5961 14.7995C22.3144 15.5178 22.9774 16.1809 23.6957 16.8992C23.751 17.0097 23.8615 17.1202 23.8615 17.286Z" fill="black"/>
</svg>
