<svg width="58" height="58" viewBox="0 0 58 58" fill="none" xmlns="http://www.w3.org/2000/svg">
<path d="M53.3118 20.0488L37.9512 4.68821C33.0336 -0.229403 25.0217 -0.229403 20.0488 4.68821L4.68821 20.0488C-0.229403 24.9664 -0.229403 32.9783 4.68821 37.9512L20.0488 53.3118C24.9664 58.2294 32.9783 58.2294 37.9512 53.3118L53.3118 37.9512C58.2294 32.9783 58.2294 24.9664 53.3118 20.0488Z" fill="white" stroke="#E11F1D" stroke-width="1.30837" stroke-miterlimit="10"/>
<path d="M11.5394 31.0444L13.6391 27.1766C13.7496 26.9556 13.8048 26.6793 13.8048 26.403L13.2523 22.038C13.197 21.4855 13.4733 20.9882 13.9706 20.7672L17.9489 18.8885C18.1699 18.778 18.3909 18.6122 18.5014 18.336L20.6011 14.4682C20.8773 13.9709 21.3746 13.7499 21.9272 13.8604L26.237 14.6892C26.5133 14.7445 26.7895 14.6892 27.0105 14.5787L30.9888 12.7C31.4861 12.479 32.0387 12.5895 32.4255 12.9763L35.4092 16.181C35.5749 16.3468 35.8512 16.5126 36.0722 16.5678L40.382 17.3966C40.9346 17.5072 41.3213 17.9492 41.3766 18.4465L41.9291 22.8115C41.9844 23.0878 42.0949 23.3088 42.2607 23.5299L45.2444 26.7346C45.6311 27.1214 45.6864 27.7292 45.4102 28.1712L43.3105 32.039C43.2 32.26 43.1447 32.5363 43.1447 32.8125L43.6973 37.1776C43.7525 37.7301 43.4763 38.2274 42.979 38.4485L39.0007 40.3271C38.7797 40.4376 38.5586 40.6034 38.4481 40.8796L36.3485 44.7474C36.0722 45.2447 35.5749 45.4657 35.0224 45.3552L30.7126 44.5264C30.4363 44.4712 30.16 44.5264 29.939 44.6369L25.9607 46.5155C25.4634 46.7366 24.9109 46.6261 24.5241 46.2393L21.5404 43.0345C21.3746 42.8688 21.0984 42.703 20.8773 42.6478L16.5675 41.8189C16.015 41.7084 15.6282 41.2664 15.573 40.7691L15.0204 36.4041C14.9652 36.1278 14.8546 35.9068 14.6889 35.6858L11.7052 32.481C11.3737 32.0942 11.2631 31.4864 11.5394 31.0444Z" stroke="#333333" stroke-width="1.2" stroke-miterlimit="10"/>
<path d="M31.0655 28.5946L31.0788 27.8833C31.088 27.3915 31.1974 26.9434 31.407 26.5388C31.6211 26.13 31.9258 25.8063 32.3212 25.5677C32.721 25.3248 33.2019 25.2087 33.7639 25.2192C34.3347 25.2299 34.8109 25.3639 35.1926 25.6214C35.5744 25.8745 35.8602 26.2093 36.0501 26.6257C36.24 27.0377 36.3304 27.4896 36.3212 27.9814L36.3079 28.6927C36.2987 29.1844 36.1892 29.6348 35.9795 30.0437C35.7743 30.4483 35.474 30.7721 35.0785 31.0151C34.6876 31.2537 34.2111 31.3678 33.6491 31.3573C33.0783 31.3466 32.5998 31.2146 32.2137 30.9615C31.8276 30.7039 31.5374 30.369 31.343 29.9569C31.1488 29.5404 31.0563 29.0863 31.0655 28.5946ZM32.4223 27.9084L32.409 28.6197C32.4014 29.028 32.4911 29.3964 32.6782 29.725C32.8654 30.0491 33.1961 30.2156 33.6703 30.2245C34.1313 30.2331 34.4592 30.0789 34.654 29.7619C34.8532 29.4407 34.9567 29.0758 34.9643 28.6675L34.9777 27.9562C34.9853 27.5479 34.8999 27.1818 34.7215 26.8578C34.5432 26.5294 34.2169 26.3608 33.7427 26.352C33.2817 26.3433 32.9472 26.4996 32.7391 26.8207C32.5356 27.1375 32.43 27.5001 32.4223 27.9084ZM24.4923 20.7501L24.5056 20.0389C24.5148 19.5471 24.6242 19.099 24.8338 18.6944C25.0479 18.2856 25.3526 17.9619 25.748 17.7233C26.1478 17.4804 26.6287 17.3642 27.1907 17.3748C27.7615 17.3854 28.2378 17.5195 28.6194 17.777C29.0012 18.0301 29.287 18.3649 29.4769 18.7813C29.6668 19.1933 29.7572 19.6452 29.748 20.137L29.7347 20.8482C29.7255 21.34 29.616 21.7903 29.4063 22.1993C29.2011 22.6039 28.9008 22.9277 28.5053 23.1706C28.1144 23.4093 27.6379 23.5234 27.0759 23.5128C26.5051 23.5022 26.0266 23.3702 25.6405 23.117C25.2544 22.8595 24.9642 22.5246 24.7698 22.1125C24.5756 21.696 24.4831 21.2419 24.4923 20.7501ZM25.8491 20.064L25.8358 20.7753C25.8282 21.1836 25.9179 21.552 26.105 21.8806C26.2922 22.2047 26.6229 22.3712 27.0971 22.3801C27.5581 22.3887 27.886 22.2345 28.0808 21.9175C28.28 21.5962 28.3835 21.2314 28.3911 20.8231L28.4045 20.1118C28.4121 19.7035 28.3267 19.3373 28.1483 19.0134C27.97 18.685 27.6437 18.5164 27.1695 18.5075C26.7085 18.4989 26.374 18.6552 26.1659 18.9763C25.9624 19.2931 25.8568 19.6557 25.8491 20.064ZM24.801 31.0072L34.3264 17.6928L35.828 17.7209L26.3026 31.0353L24.801 31.0072Z" fill="#333333"/>
<path d="M19.2607 36.275L18.5559 36.3384C18.5348 36.2483 18.5012 36.1697 18.4552 36.1024C18.409 36.0341 18.3526 35.9776 18.2858 35.9327C18.219 35.8879 18.1437 35.8558 18.0597 35.8363C17.9769 35.8167 17.8882 35.8111 17.7938 35.8196C17.6232 35.835 17.4784 35.8907 17.3595 35.9869C17.2404 36.0819 17.1532 36.2131 17.098 36.3803C17.0426 36.5464 17.0252 36.7437 17.0458 36.9722C17.0669 37.2072 17.1195 37.4014 17.2037 37.555C17.2888 37.7085 17.3984 37.8203 17.5323 37.8905C17.6663 37.9606 17.8164 37.9882 17.9827 37.9733C18.076 37.9649 18.1612 37.9448 18.2384 37.9129C18.3167 37.881 18.3848 37.8387 18.4427 37.7859C18.5006 37.732 18.5469 37.6689 18.5815 37.5966C18.6171 37.5241 18.639 37.4432 18.6472 37.3538L19.3524 37.2936C19.3477 37.4465 19.3153 37.5965 19.255 37.7436C19.1956 37.8896 19.1098 38.0233 18.9974 38.1448C18.886 38.2651 18.749 38.365 18.5864 38.4446C18.4247 38.5229 18.2382 38.5716 18.0268 38.5906C17.7329 38.6171 17.464 38.5742 17.2203 38.462C16.9777 38.3497 16.778 38.1735 16.6212 37.9335C16.4655 37.6933 16.3716 37.3941 16.3393 37.0358C16.307 36.6764 16.3471 36.3645 16.4596 36.1003C16.5721 35.836 16.7383 35.6274 16.9581 35.4746C17.1779 35.3208 17.4326 35.2308 17.7223 35.2047C17.9132 35.1876 18.0927 35.1985 18.2606 35.2374C18.4295 35.2763 18.5819 35.3416 18.7178 35.4332C18.8536 35.5237 18.9678 35.6394 19.0605 35.7803C19.1543 35.9211 19.221 36.086 19.2607 36.275ZM22.4583 34.8242L22.7548 38.1199L22.066 38.1819L21.8205 35.4526L20.4881 35.5724L20.7336 38.3017L20.0448 38.3637L19.7484 35.0679L22.4583 34.8242ZM23.4182 38.0602L23.1218 34.7645L25.3425 34.5647L25.3942 35.1392L23.8702 35.2763L23.9409 36.0616L25.3506 35.9348L25.4023 36.5093L23.9926 36.6361L24.0633 37.4231L25.5937 37.2854L25.6454 37.8599L23.4182 38.0602ZM29.3179 36.9682L29.3979 38.3075L28.7348 38.3672L28.6648 37.5883L28.4331 37.6092L28.383 37.0523L29.3179 36.9682ZM26.193 37.8106L25.8965 34.5149L26.566 34.4547L26.812 37.1904L28.1831 37.0671L27.9371 34.3313L28.6145 34.2704L28.911 37.5662L26.193 37.8106ZM32.9158 36.6446L32.9958 37.9839L32.3327 38.0436L32.2627 37.2647L32.0309 37.2855L31.9809 36.7287L32.9158 36.6446ZM29.7909 37.487L29.4944 34.1913L30.1639 34.131L30.4099 36.8668L31.781 36.7435L31.5349 34.0077L32.2124 33.9468L32.5089 37.2425L29.7909 37.487ZM33.3888 37.1634L33.0923 33.8676L35.3131 33.6679L35.3647 34.2424L33.8408 34.3795L33.9114 35.1648L35.3211 35.038L35.3728 35.6125L33.9631 35.7393L34.0339 36.5262L35.5643 36.3885L35.616 36.9631L33.3888 37.1634ZM36.1635 36.9138L35.8671 33.618L36.5639 33.5554L36.6862 34.9152L38.1007 34.7879L37.9784 33.4281L38.6736 33.3656L38.9701 36.6614L38.2749 36.7239L38.1524 35.3625L36.7379 35.4897L36.8603 36.8511L36.1635 36.9138ZM40.1126 36.5586L39.3659 36.6257L40.2072 33.2276L41.1052 33.1469L42.5378 36.3404L41.7911 36.4076L40.7368 33.9392L40.7111 33.9415L40.1126 36.5586ZM39.9494 35.2673L41.7132 35.1087L41.7621 35.6526L39.9984 35.8113L39.9494 35.2673Z" fill="#333333"/>
</svg>
